<svg xmlns="http://www.w3.org/2000/svg" viewBox="0 0 512 512" width="512" height="512" role="img" aria-label="QQMouse logo">
<path d="M406.0 250.0 A150 150 0 0 1 405.3 264.7" stroke="#3398eb" stroke-width="52" fill="none" stroke-linecap="round"/><path d="M405.7 259.8 A150 150 0 0 1 404.0 274.4" stroke="#338deb" stroke-width="52" fill="none" stroke-linecap="round"/><path d="M404.7 269.6 A150 150 0 0 1 402.1 284.1" stroke="#3381eb" stroke-width="52" fill="none" stroke-linecap="round"/><path d="M403.1 279.3 A150 150 0 0 1 399.5 293.5" stroke="#3376eb" stroke-width="52" fill="none" stroke-linecap="round"/><path d="M400.9 288.8 A150 150 0 0 1 396.4 302.8" stroke="#336aeb" stroke-width="52" fill="none" stroke-linecap="round"/><path d="M398.0 298.2 A150 150 0 0 1 392.6 311.9" stroke="#335feb" stroke-width="52" fill="none" stroke-linecap="round"/><path d="M394.6 307.4 A150 150 0 0 1 388.3 320.7" stroke="#3353eb" stroke-width="52" fill="none" stroke-linecap="round"/><path d="M390.5 316.3 A150 150 0 0 1 383.4 329.2" stroke="#3348eb" stroke-width="52" fill="none" stroke-linecap="round"/><path d="M385.9 325.0 A150 150 0 0 1 377.9 337.4" stroke="#333ceb" stroke-width="52" fill="none" stroke-linecap="round"/><path d="M380.7 333.3 A150 150 0 0 1 372.0 345.2" stroke="#3533eb" stroke-width="52" fill="none" stroke-linecap="round"/><path d="M375.0 341.3 A150 150 0 0 1 365.5 352.5" stroke="#4033eb" stroke-width="52" fill="none" stroke-linecap="round"/><path d="M368.8 348.9 A150 150 0 0 1 358.5 359.5" stroke="#4c33eb" stroke-width="52" fill="none" stroke-linecap="round"/><path d="M362.1 356.1 A150 150 0 0 1 351.2 366.0" stroke="#5733eb" stroke-width="52" fill="none" stroke-linecap="round"/><path d="M354.9 362.8 A150 150 0 0 1 343.4 371.9" stroke="#6333eb" stroke-width="52" fill="none" stroke-linecap="round"/><path d="M347.3 369.0 A150 150 0 0 1 335.2 377.4" stroke="#6e33eb" stroke-width="52" fill="none" stroke-linecap="round"/><path d="M339.3 374.7 A150 150 0 0 1 326.7 382.3" stroke="#7a33eb" stroke-width="52" fill="none" stroke-linecap="round"/><path d="M331.0 379.9 A150 150 0 0 1 317.9 386.6" stroke="#8533eb" stroke-width="52" fill="none" stroke-linecap="round"/><path d="M322.3 384.5 A150 150 0 0 1 308.8 390.4" stroke="#9133eb" stroke-width="52" fill="none" stroke-linecap="round"/><path d="M313.4 388.6 A150 150 0 0 1 299.5 393.5" stroke="#9c33eb" stroke-width="52" fill="none" stroke-linecap="round"/><path d="M304.2 392.0 A150 150 0 0 1 290.1 396.1" stroke="#a833eb" stroke-width="52" fill="none" stroke-linecap="round"/><path d="M294.8 394.9 A150 150 0 0 1 280.4 398.0" stroke="#b333eb" stroke-width="52" fill="none" stroke-linecap="round"/><path d="M285.3 397.1 A150 150 0 0 1 270.7 399.3" stroke="#bf33eb" stroke-width="52" fill="none" stroke-linecap="round"/><path d="M275.6 398.7 A150 150 0 0 1 260.9 399.9" stroke="#ca33eb" stroke-width="52" fill="none" stroke-linecap="round"/><path d="M265.8 399.7 A150 150 0 0 1 251.1 399.9" stroke="#d633eb" stroke-width="52" fill="none" stroke-linecap="round"/><path d="M256.0 400.0 A150 150 0 0 1 241.3 399.3" stroke="#e133eb" stroke-width="52" fill="none" stroke-linecap="round"/><path d="M246.2 399.7 A150 150 0 0 1 231.6 398.0" stroke="#eb33e9" stroke-width="52" fill="none" stroke-linecap="round"/><path d="M236.4 398.7 A150 150 0 0 1 221.9 396.1" stroke="#eb33dd" stroke-width="52" fill="none" stroke-linecap="round"/><path d="M226.7 397.1 A150 150 0 0 1 212.5 393.5" stroke="#eb33d2" stroke-width="52" fill="none" stroke-linecap="round"/><path d="M217.2 394.9 A150 150 0 0 1 203.2 390.4" stroke="#eb33c6" stroke-width="52" fill="none" stroke-linecap="round"/><path d="M207.8 392.0 A150 150 0 0 1 194.1 386.6" stroke="#eb33bb" stroke-width="52" fill="none" stroke-linecap="round"/><path d="M198.6 388.6 A150 150 0 0 1 185.3 382.3" stroke="#eb33af" stroke-width="52" fill="none" stroke-linecap="round"/><path d="M189.7 384.5 A150 150 0 0 1 176.8 377.4" stroke="#eb33a4" stroke-width="52" fill="none" stroke-linecap="round"/><path d="M181.0 379.9 A150 150 0 0 1 168.6 371.9" stroke="#eb3398" stroke-width="52" fill="none" stroke-linecap="round"/><path d="M172.7 374.7 A150 150 0 0 1 160.8 366.0" stroke="#eb338d" stroke-width="52" fill="none" stroke-linecap="round"/><path d="M164.7 369.0 A150 150 0 0 1 153.5 359.5" stroke="#eb3381" stroke-width="52" fill="none" stroke-linecap="round"/><path d="M157.1 362.8 A150 150 0 0 1 146.5 352.5" stroke="#eb3376" stroke-width="52" fill="none" stroke-linecap="round"/><path d="M149.9 356.1 A150 150 0 0 1 140.0 345.2" stroke="#eb336a" stroke-width="52" fill="none" stroke-linecap="round"/><path d="M143.2 348.9 A150 150 0 0 1 134.1 337.4" stroke="#eb335f" stroke-width="52" fill="none" stroke-linecap="round"/><path d="M137.0 341.3 A150 150 0 0 1 128.6 329.2" stroke="#eb3353" stroke-width="52" fill="none" stroke-linecap="round"/><path d="M131.3 333.3 A150 150 0 0 1 123.7 320.7" stroke="#eb3348" stroke-width="52" fill="none" stroke-linecap="round"/><path d="M126.1 325.0 A150 150 0 0 1 119.4 311.9" stroke="#eb333c" stroke-width="52" fill="none" stroke-linecap="round"/><path d="M121.5 316.3 A150 150 0 0 1 115.6 302.8" stroke="#eb3533" stroke-width="52" fill="none" stroke-linecap="round"/><path d="M117.4 307.4 A150 150 0 0 1 112.5 293.5" stroke="#eb4033" stroke-width="52" fill="none" stroke-linecap="round"/><path d="M114.0 298.2 A150 150 0 0 1 109.9 284.1" stroke="#eb4c33" stroke-width="52" fill="none" stroke-linecap="round"/><path d="M111.1 288.8 A150 150 0 0 1 108.0 274.4" stroke="#eb5733" stroke-width="52" fill="none" stroke-linecap="round"/><path d="M108.9 279.3 A150 150 0 0 1 106.7 264.7" stroke="#eb6333" stroke-width="52" fill="none" stroke-linecap="round"/><path d="M107.3 269.6 A150 150 0 0 1 106.1 254.9" stroke="#eb6e33" stroke-width="52" fill="none" stroke-linecap="round"/><path d="M106.3 259.8 A150 150 0 0 1 106.1 245.1" stroke="#eb7a33" stroke-width="52" fill="none" stroke-linecap="round"/><path d="M106.0 250.0 A150 150 0 0 1 106.7 235.3" stroke="#eb8533" stroke-width="52" fill="none" stroke-linecap="round"/><path d="M106.3 240.2 A150 150 0 0 1 108.0 225.6" stroke="#eb9133" stroke-width="52" fill="none" stroke-linecap="round"/><path d="M107.3 230.4 A150 150 0 0 1 109.9 215.9" stroke="#eb9c33" stroke-width="52" fill="none" stroke-linecap="round"/><path d="M108.9 220.7 A150 150 0 0 1 112.5 206.5" stroke="#eba833" stroke-width="52" fill="none" stroke-linecap="round"/><path d="M111.1 211.2 A150 150 0 0 1 115.6 197.2" stroke="#ebb333" stroke-width="52" fill="none" stroke-linecap="round"/><path d="M114.0 201.8 A150 150 0 0 1 119.4 188.1" stroke="#ebbf33" stroke-width="52" fill="none" stroke-linecap="round"/><path d="M117.4 192.6 A150 150 0 0 1 123.7 179.3" stroke="#ebca33" stroke-width="52" fill="none" stroke-linecap="round"/><path d="M121.5 183.7 A150 150 0 0 1 128.6 170.8" stroke="#ebd633" stroke-width="52" fill="none" stroke-linecap="round"/><path d="M126.1 175.0 A150 150 0 0 1 134.1 162.6" stroke="#ebe133" stroke-width="52" fill="none" stroke-linecap="round"/><path d="M131.3 166.7 A150 150 0 0 1 140.0 154.8" stroke="#e9eb33" stroke-width="52" fill="none" stroke-linecap="round"/><path d="M137.0 158.7 A150 150 0 0 1 146.5 147.5" stroke="#ddeb33" stroke-width="52" fill="none" stroke-linecap="round"/><path d="M143.2 151.1 A150 150 0 0 1 153.5 140.5" stroke="#d2eb33" stroke-width="52" fill="none" stroke-linecap="round"/><path d="M149.9 143.9 A150 150 0 0 1 160.8 134.0" stroke="#c6eb33" stroke-width="52" fill="none" stroke-linecap="round"/><path d="M157.1 137.2 A150 150 0 0 1 168.6 128.1" stroke="#bbeb33" stroke-width="52" fill="none" stroke-linecap="round"/><path d="M164.7 131.0 A150 150 0 0 1 176.8 122.6" stroke="#afeb33" stroke-width="52" fill="none" stroke-linecap="round"/><path d="M172.7 125.3 A150 150 0 0 1 185.3 117.7" stroke="#a4eb33" stroke-width="52" fill="none" stroke-linecap="round"/><path d="M181.0 120.1 A150 150 0 0 1 194.1 113.4" stroke="#98eb33" stroke-width="52" fill="none" stroke-linecap="round"/><path d="M189.7 115.5 A150 150 0 0 1 203.2 109.6" stroke="#8deb33" stroke-width="52" fill="none" stroke-linecap="round"/><path d="M198.6 111.4 A150 150 0 0 1 212.5 106.5" stroke="#81eb33" stroke-width="52" fill="none" stroke-linecap="round"/><path d="M207.8 108.0 A150 150 0 0 1 221.9 103.9" stroke="#76eb33" stroke-width="52" fill="none" stroke-linecap="round"/><path d="M217.2 105.1 A150 150 0 0 1 231.6 102.0" stroke="#6aeb33" stroke-width="52" fill="none" stroke-linecap="round"/><path d="M226.7 102.9 A150 150 0 0 1 241.3 100.7" stroke="#5feb33" stroke-width="52" fill="none" stroke-linecap="round"/><path d="M236.4 101.3 A150 150 0 0 1 251.1 100.1" stroke="#53eb33" stroke-width="52" fill="none" stroke-linecap="round"/><path d="M246.2 100.3 A150 150 0 0 1 260.9 100.1" stroke="#48eb33" stroke-width="52" fill="none" stroke-linecap="round"/><path d="M256.0 100.0 A150 150 0 0 1 270.7 100.7" stroke="#3ceb33" stroke-width="52" fill="none" stroke-linecap="round"/><path d="M265.8 100.3 A150 150 0 0 1 280.4 102.0" stroke="#33eb35" stroke-width="52" fill="none" stroke-linecap="round"/><path d="M275.6 101.3 A150 150 0 0 1 290.1 103.9" stroke="#33eb40" stroke-width="52" fill="none" stroke-linecap="round"/><path d="M285.3 102.9 A150 150 0 0 1 299.5 106.5" stroke="#33eb4c" stroke-width="52" fill="none" stroke-linecap="round"/><path d="M294.8 105.1 A150 150 0 0 1 308.8 109.6" stroke="#33eb57" stroke-width="52" fill="none" stroke-linecap="round"/><path d="M304.2 108.0 A150 150 0 0 1 317.9 113.4" stroke="#33eb63" stroke-width="52" fill="none" stroke-linecap="round"/><path d="M313.4 111.4 A150 150 0 0 1 326.7 117.7" stroke="#33eb6e" stroke-width="52" fill="none" stroke-linecap="round"/><path d="M322.3 115.5 A150 150 0 0 1 335.2 122.6" stroke="#33eb7a" stroke-width="52" fill="none" stroke-linecap="round"/><path d="M331.0 120.1 A150 150 0 0 1 343.4 128.1" stroke="#33eb85" stroke-width="52" fill="none" stroke-linecap="round"/><path d="M339.3 125.3 A150 150 0 0 1 351.2 134.0" stroke="#33eb91" stroke-width="52" fill="none" stroke-linecap="round"/><path d="M347.3 131.0 A150 150 0 0 1 358.5 140.5" stroke="#33eb9c" stroke-width="52" fill="none" stroke-linecap="round"/><path d="M354.9 137.2 A150 150 0 0 1 365.5 147.5" stroke="#33eba8" stroke-width="52" fill="none" stroke-linecap="round"/><path d="M362.1 143.9 A150 150 0 0 1 372.0 154.8" stroke="#33ebb3" stroke-width="52" fill="none" stroke-linecap="round"/><path d="M368.8 151.1 A150 150 0 0 1 377.9 162.6" stroke="#33ebbf" stroke-width="52" fill="none" stroke-linecap="round"/><path d="M375.0 158.7 A150 150 0 0 1 383.4 170.8" stroke="#33ebca" stroke-width="52" fill="none" stroke-linecap="round"/><path d="M380.7 166.7 A150 150 0 0 1 388.3 179.3" stroke="#33ebd6" stroke-width="52" fill="none" stroke-linecap="round"/><path d="M385.9 175.0 A150 150 0 0 1 392.6 188.1" stroke="#33ebe1" stroke-width="52" fill="none" stroke-linecap="round"/><path d="M390.5 183.7 A150 150 0 0 1 396.4 197.2" stroke="#33e9eb" stroke-width="52" fill="none" stroke-linecap="round"/><path d="M394.6 192.6 A150 150 0 0 1 399.5 206.5" stroke="#33ddeb" stroke-width="52" fill="none" stroke-linecap="round"/><path d="M398.0 201.8 A150 150 0 0 1 402.1 215.9" stroke="#33d2eb" stroke-width="52" fill="none" stroke-linecap="round"/><path d="M400.9 211.2 A150 150 0 0 1 404.0 225.6" stroke="#33c6eb" stroke-width="52" fill="none" stroke-linecap="round"/><path d="M403.1 220.7 A150 150 0 0 1 405.3 235.3" stroke="#33bbeb" stroke-width="52" fill="none" stroke-linecap="round"/><path d="M404.7 230.4 A150 150 0 0 1 405.9 245.1" stroke="#33afeb" stroke-width="52" fill="none" stroke-linecap="round"/><path d="M405.7 240.2 A150 150 0 0 1 405.9 254.9" stroke="#33a4eb" stroke-width="52" fill="none" stroke-linecap="round"/><path d="M336.5 369.4 L416.7 384.9" stroke="#5533eb" stroke-width="52" fill="none" stroke-linecap="round"/>
</svg>
