<svg xmlns="http://www.w3.org/2000/svg" viewBox="0 0 414 309" width="414" height="309" role="img" aria-label="QQMouse logo">
<path fill="none" opacity="1.000000" stroke="none" 
	d="
M321.000000,310.000000 
	C242.645767,310.000000 164.291550,310.000000 85.464584,309.634277 
	C82.573730,306.467499 80.086769,303.722168 77.760490,300.846863 
	C76.065155,298.751404 74.389030,296.595093 73.051849,294.266388 
	C71.315445,291.242432 70.002129,287.978851 68.361908,284.895416 
	C66.701881,281.774750 64.487846,278.898346 63.192307,275.645752 
	C61.126640,270.459717 59.623722,265.049774 57.876385,259.736633 
	C57.261761,257.867737 56.390808,256.047821 56.045723,254.131882 
	C54.788326,247.150818 53.199532,240.176239 52.673981,233.129242 
	C51.914764,222.949066 51.296127,212.669601 51.870861,202.503357 
	C52.464458,192.003296 54.451122,181.571884 56.033482,171.141556 
	C57.011536,164.694595 55.394569,157.221680 62.774719,153.040588 
	C63.529491,152.612976 63.712982,150.990509 63.951050,149.877472 
	C64.399345,147.781601 64.199867,145.390991 65.153557,143.591278 
	C67.266136,139.604599 69.059578,134.389694 72.539856,132.403931 
	C80.153923,128.059509 81.998413,126.651276 82.000404,118.113388 
	C82.001022,115.450760 81.836113,112.771538 82.093071,110.133629 
	C82.196716,109.069611 83.155975,107.281586 83.850067,107.219856 
	C87.147690,106.926598 90.580826,106.677269 93.766602,107.352165 
	C94.998917,107.613228 95.628220,110.409966 96.683800,111.947449 
	C97.209328,112.712891 98.076904,113.243515 98.786865,113.877777 
	C100.324997,112.807251 101.622078,111.904503 102.969788,111.409927 
	C102.757515,114.876823 102.494606,117.935539 102.135147,121.454407 
	C102.044365,127.944893 102.050133,133.975250 101.980347,140.443954 
	C102.282974,148.326935 102.563904,155.779343 103.157188,163.206787 
	C103.235085,164.181915 104.912331,165.029266 106.277161,165.954453 
	C108.134300,165.981888 109.563110,165.990677 110.993149,166.372604 
	C110.976189,167.491180 110.958000,168.236618 110.674751,169.169205 
	C110.326469,174.902802 110.243248,180.449234 110.111526,186.370697 
	C111.265907,189.500214 112.468788,192.254715 113.634674,195.331543 
	C115.756554,198.761307 117.915413,201.868698 120.089264,205.317047 
	C121.458824,207.093048 122.813400,208.528122 124.292130,210.264191 
	C126.555695,212.398911 128.695099,214.232666 131.018585,216.353683 
	C135.805710,219.406952 140.408752,222.172958 145.272552,225.176758 
	C148.302139,226.408997 151.070999,227.403442 154.130356,228.606201 
	C160.256973,229.941467 166.093094,231.068420 172.268433,232.409317 
	C186.615204,234.386765 200.584427,234.781723 214.684418,231.495636 
	C204.393982,227.900833 194.325470,224.383545 184.037506,220.599945 
	C178.864594,216.935791 173.911133,213.537964 168.811218,209.838837 
	C166.108932,207.028259 163.553116,204.518951 160.880127,201.710938 
	C159.803802,200.286789 158.844620,199.161362 157.786224,197.714005 
	C155.109573,193.598419 152.532166,189.804749 149.919708,185.654968 
	C148.304626,182.182068 146.724594,179.065262 145.114212,175.560333 
	C143.809219,171.075500 142.534561,166.978790 141.237061,162.456299 
	C140.725357,158.352844 140.236526,154.675125 139.800812,150.574341 
	C139.515091,146.098846 139.176270,142.046402 138.904816,137.530365 
	C139.284332,129.046936 139.596481,121.027130 140.019653,112.625732 
	C141.744293,105.188042 143.357910,98.131927 145.153076,90.796265 
	C148.283279,87.268204 144.640259,85.856201 143.597946,83.505142 
	C144.218735,82.634079 144.693787,82.018074 145.468140,81.230713 
	C148.815796,78.358383 151.864197,75.657417 155.167236,72.927750 
	C155.591690,72.880150 155.761490,72.861244 156.188904,73.154236 
	C166.068634,75.151360 171.062286,72.018501 171.268860,64.185928 
	C175.080017,63.017727 178.540192,62.050877 182.082397,61.447906 
	C185.384521,63.932877 188.096497,63.791275 190.439392,59.965118 
	C193.252029,59.942970 195.625977,60.007915 198.039948,60.428207 
	C199.008408,64.794724 201.990906,66.741638 205.649002,66.795135 
	C208.657471,66.839119 212.093643,66.240356 213.364868,62.273533 
	C215.127579,62.506706 216.529114,62.723156 217.966248,62.979233 
	C218.001846,63.018860 218.080093,63.091183 218.100006,63.403435 
	C218.748962,64.133392 219.378006,64.551109 220.283188,65.175369 
	C222.684372,69.071030 225.920166,67.253654 228.989288,67.081352 
	C229.148209,67.112373 229.469437,67.153496 229.618835,67.475815 
	C231.506592,70.209030 233.244980,72.619934 234.998108,75.389328 
	C237.004089,79.174095 238.995346,82.600372 240.997314,86.375328 
	C241.685028,88.145172 242.362015,89.566322 243.050110,91.370644 
	C244.099548,95.171143 245.137909,98.588470 246.147797,102.408432 
	C246.737885,106.210487 247.356415,109.609909 247.929443,113.466049 
	C248.269211,118.282089 248.654480,122.641426 248.953247,127.453568 
	C248.783493,143.801331 247.621552,159.544449 241.327850,175.860809 
	C243.351562,174.308792 244.214645,173.646866 245.287170,172.863159 
	C245.751678,172.518036 245.902832,172.238480 245.964249,171.940247 
	C245.978455,171.977798 245.901215,171.955841 246.149979,171.846466 
	C246.579010,171.432159 246.759293,171.127213 247.072083,170.518036 
	C261.864441,151.546509 270.543396,130.292831 274.707397,106.620087 
	C275.621765,101.139091 276.364075,96.050301 277.477173,90.925232 
	C285.989502,87.077011 284.196106,96.683914 288.594543,99.247574 
	C289.411407,96.255188 290.074188,93.827271 290.723358,91.449188 
	C297.066132,90.577171 297.187439,90.463501 301.302673,94.854828 
	C308.446106,102.477486 315.363495,110.311623 322.483337,117.956787 
	C333.472473,129.756668 339.678101,144.355408 345.799194,158.840302 
	C349.451813,167.483810 352.818298,176.754913 353.624451,185.978897 
	C354.916534,200.762604 354.427887,215.760483 353.797241,230.629898 
	C353.464478,238.475906 351.851074,246.414139 349.712158,253.999481 
	C347.106964,263.238495 343.494232,272.210144 339.990967,281.169830 
	C338.816498,284.173523 336.729492,286.845184 334.905548,289.565338 
	C330.317169,296.408295 325.640961,303.192322 321.000000,310.000000 
M215.293091,202.057556 
	C213.198364,202.745560 211.103653,203.433548 208.177170,204.088348 
	C203.124603,204.753586 198.072037,205.418839 192.175278,205.960876 
	C184.689865,204.834381 177.204453,203.707886 168.863052,202.452560 
	C177.025360,209.798401 184.749283,216.352814 195.464645,219.574799 
	C199.968613,220.806656 204.472565,222.038528 209.648560,223.627975 
	C211.671646,223.941238 213.694733,224.254501 216.395309,224.884384 
	C219.273193,225.131470 222.151077,225.378571 225.849564,225.794128 
	C228.599380,225.277802 231.349197,224.761475 234.787354,224.089798 
	C236.858017,223.014145 238.928665,221.938477 241.661850,220.697174 
	C244.121841,219.184677 246.581818,217.672165 249.715607,215.962463 
	C252.481674,213.993134 255.247757,212.023788 258.673767,209.908478 
	C261.722931,206.250183 264.772064,202.591904 268.338257,198.492828 
	C270.308258,194.700226 272.278290,190.907639 274.831390,186.732346 
	C276.503418,182.152374 278.175446,177.572388 280.006927,172.209457 
	C287.772644,150.504761 287.343719,110.049011 282.238098,97.759453 
	C279.886658,108.046013 277.488617,118.536324 274.682770,129.607590 
	C272.962067,134.338516 271.241364,139.069443 269.092133,144.321625 
	C267.336609,148.095703 265.581085,151.869766 263.275940,156.063782 
	C260.782532,160.180618 258.289154,164.297455 255.210220,168.818573 
	C253.131744,171.525223 251.053253,174.231873 248.266571,177.082565 
	C244.816910,180.709167 241.367249,184.335770 237.314728,188.193115 
	C235.877945,189.469025 234.441147,190.744919 232.354172,192.226044 
	C229.915421,193.963120 227.476685,195.700195 224.377029,197.543335 
	C221.598679,199.035446 218.820328,200.527557 215.293091,202.057556 
M289.384338,264.766052 
	C292.764862,265.177521 296.154083,265.529236 299.523163,266.019440 
	C302.211456,266.410645 303.673279,265.033356 303.860535,262.663910 
	C304.272522,257.451141 304.367584,252.213333 304.744568,246.213898 
	C304.098724,241.171555 303.696320,235.958176 296.257965,235.025436 
	C294.188904,234.314102 292.119873,233.602768 289.752930,232.278870 
	C286.483521,230.567795 283.214142,228.856720 279.470520,226.665497 
	C276.339111,224.725922 273.207703,222.786331 269.728241,220.255692 
	C267.164368,218.290558 264.600525,216.325424 262.304138,214.565292 
	C253.674164,219.740234 245.358124,224.726944 235.968689,230.357300 
	C243.285446,236.092392 250.161316,241.481888 257.414276,247.413254 
	C258.914520,248.336685 260.414764,249.260117 262.254517,250.763947 
	C265.834991,252.771225 269.415466,254.778503 273.573608,257.185944 
	C275.669952,258.148865 277.766327,259.111786 280.335724,260.601807 
	C283.216095,261.764557 286.096436,262.927307 289.384338,264.766052 
z"/>
<path fill="none" opacity="1.000000" stroke="none" 
	d="
M321.468658,310.000000 
	C325.640961,303.192322 330.317169,296.408295 334.905548,289.565338 
	C336.729492,286.845184 338.816498,284.173523 339.990967,281.169830 
	C343.494232,272.210144 347.106964,263.238495 349.712158,253.999481 
	C351.851074,246.414139 353.464478,238.475906 353.797241,230.629898 
	C354.427887,215.760483 354.916534,200.762604 353.624451,185.978897 
	C352.818298,176.754913 349.451813,167.483810 345.799194,158.840302 
	C339.678101,144.355408 333.472473,129.756668 322.483337,117.956787 
	C315.363495,110.311623 308.446106,102.477486 301.302673,94.854828 
	C297.187439,90.463501 297.066132,90.577171 290.723358,91.449188 
	C290.074188,93.827271 289.411407,96.255188 288.594543,99.247574 
	C284.196106,96.683914 285.989502,87.077011 277.379456,90.962494 
	C276.910889,91.036049 276.708405,91.088852 276.818268,90.652390 
	C276.590759,85.486542 276.253387,80.757156 275.886963,75.677994 
	C274.323944,72.675285 272.789978,70.022339 271.206757,67.047607 
	C269.480225,64.462181 267.802917,62.198547 266.006958,59.615974 
	C263.332611,56.680771 260.776947,54.064503 258.032776,51.204552 
	C256.358948,49.913425 254.873688,48.865986 253.188232,47.534241 
	C248.377655,44.698528 243.767273,42.147118 238.902969,39.367981 
	C234.805725,37.982037 230.962387,36.823818 226.820404,35.449432 
	C221.360672,34.461224 216.199631,33.689190 210.689941,32.693089 
	C198.903427,31.643129 187.479996,31.116652 176.701202,33.262852 
	C187.760864,38.147774 198.885025,43.061184 210.122635,48.208321 
	C210.682480,48.684654 211.128860,48.927261 211.743530,49.405388 
	C212.267136,49.778706 212.622467,49.916500 213.133606,50.348434 
	C216.837189,53.815361 220.384995,56.988155 224.049866,60.466255 
	C225.721405,62.864483 227.275894,64.957405 228.830383,67.050331 
	C225.920166,67.253654 222.684372,69.071030 220.242584,64.866043 
	C219.310608,63.930496 218.695343,63.510841 218.080093,63.091183 
	C218.080093,63.091183 218.001846,63.018860 217.883179,62.659286 
	C203.194214,46.797630 184.759888,40.218430 163.667755,38.879040 
	C159.561630,39.234371 155.784958,39.726547 151.658478,40.240807 
	C147.874100,42.213921 144.439514,44.164948 140.667160,46.146408 
	C135.814026,50.092850 131.298676,54.008854 126.572594,57.985889 
	C126.094360,58.215488 125.944817,58.457077 125.615936,58.941429 
	C122.176216,63.681629 119.033806,68.252083 115.631264,73.056961 
	C113.068558,78.478981 110.765991,83.666588 108.310898,89.066483 
	C107.891762,89.904762 107.625137,90.530754 106.997665,91.007957 
	C103.936653,89.244675 101.351295,90.603638 101.406898,92.941513 
	C101.521744,97.770813 102.832840,102.571663 103.627075,107.753616 
	C103.374565,109.082596 103.146858,110.042168 102.919159,111.001740 
	C101.622078,111.904503 100.324997,112.807251 98.786865,113.877777 
	C98.076904,113.243515 97.209328,112.712891 96.683800,111.947449 
	C95.628220,110.409966 94.998917,107.613228 93.766602,107.352165 
	C90.580826,106.677269 87.147690,106.926598 83.850067,107.219856 
	C83.155975,107.281586 82.196716,109.069611 82.093071,110.133629 
	C81.836113,112.771538 82.001022,115.450760 82.000404,118.113388 
	C81.998413,126.651276 80.153923,128.059509 72.539856,132.403931 
	C69.059578,134.389694 67.266136,139.604599 65.153557,143.591278 
	C64.199867,145.390991 64.399345,147.781601 63.951050,149.877472 
	C63.712982,150.990509 63.529491,152.612976 62.774719,153.040588 
	C55.394569,157.221680 57.011536,164.694595 56.033482,171.141556 
	C54.451122,181.571884 52.464458,192.003296 51.870861,202.503357 
	C51.296127,212.669601 51.914764,222.949066 52.673981,233.129242 
	C53.199532,240.176239 54.788326,247.150818 56.045723,254.131882 
	C56.390808,256.047821 57.261761,257.867737 57.876385,259.736633 
	C59.623722,265.049774 61.126640,270.459717 63.192307,275.645752 
	C64.487846,278.898346 66.701881,281.774750 68.361908,284.895416 
	C70.002129,287.978851 71.315445,291.242432 73.051849,294.266388 
	C74.389030,296.595093 76.065155,298.751404 77.760490,300.846863 
	C80.086769,303.722168 82.573730,306.467499 84.995926,309.634277 
	C57.045776,310.000000 29.091551,310.000000 1.000000,310.000000 
	C1.000000,248.979172 1.000000,187.958237 1.351292,126.412491 
	C2.335514,125.167931 3.142680,124.539459 3.574730,123.714516 
	C8.519535,114.273087 10.996965,103.446381 19.297169,95.876762 
	C19.805538,95.413139 19.662155,94.301765 20.007586,93.580673 
	C21.317034,90.847221 22.234243,87.749931 24.145658,85.512840 
	C30.596556,77.962814 37.576839,70.864212 44.003494,63.294815 
	C46.551525,60.293720 49.897156,57.457153 49.296093,52.526848 
	C49.174789,51.531849 51.759373,50.013130 53.293713,49.050228 
	C56.552456,47.005138 60.149063,45.448891 63.227516,43.177666 
	C67.843826,39.771839 71.704758,35.263424 78.063591,34.836475 
	C79.083542,34.767994 80.845451,33.049759 80.817528,32.138508 
	C80.637886,26.275156 84.213120,25.574205 88.678886,26.026279 
	C91.739311,26.336094 93.345619,25.020920 95.000137,22.434502 
	C96.490120,20.105318 98.984306,17.881229 101.533104,16.889668 
	C105.593079,15.310216 110.321144,15.389817 114.305733,13.688351 
	C120.540535,11.026018 126.432785,7.538041 132.366455,4.214677 
	C133.491547,3.584538 134.134552,2.093706 135.000000,0.999999 
	C181.687561,1.000000 228.375122,1.000000 275.531433,1.423749 
	C275.520569,5.759388 277.226257,7.312196 281.152344,7.048781 
	C284.634064,6.815178 288.187744,6.673782 291.623688,7.133655 
	C293.458527,7.379226 295.144135,8.929930 296.838440,9.985742 
	C298.902130,11.271717 300.819824,12.816400 302.960785,13.945661 
	C304.523834,14.770107 306.539185,14.791595 308.019684,15.708874 
	C315.635345,20.427364 323.213837,25.213621 330.674408,30.173157 
	C346.962708,41.001125 360.490326,54.760059 373.218048,69.529785 
	C388.477112,87.236977 399.479980,107.297218 408.448273,128.681976 
	C410.239349,132.952744 412.796234,136.902313 415.000000,141.000000 
	C415.000000,197.239487 415.000000,253.478958 415.000000,310.000000 
	C383.979675,310.000000 352.958496,310.000000 321.468658,310.000000 
z"/>
<path fill="none" opacity="1.000000" stroke="none" 
	d="
M415.000000,140.531342 
	C412.796234,136.902313 410.239349,132.952744 408.448273,128.681976 
	C399.479980,107.297218 388.477112,87.236977 373.218048,69.529785 
	C360.490326,54.760059 346.962708,41.001125 330.674408,30.173157 
	C323.213837,25.213621 315.635345,20.427364 308.019684,15.708874 
	C306.539185,14.791595 304.523834,14.770107 302.960785,13.945661 
	C300.819824,12.816400 298.902130,11.271717 296.838440,9.985742 
	C295.144135,8.929930 293.458527,7.379226 291.623688,7.133655 
	C288.187744,6.673782 284.634064,6.815178 281.152344,7.048781 
	C277.226257,7.312196 275.520569,5.759388 276.000092,1.423749 
	C322.260590,1.000000 368.521149,1.000000 415.000000,1.000000 
	C415.000000,47.354000 415.000000,93.708344 415.000000,140.531342 
z"/>
<path fill="none" opacity="1.000000" stroke="none" 
	d="
M134.531342,0.999999 
	C134.134552,2.093706 133.491547,3.584538 132.366455,4.214677 
	C126.432785,7.538041 120.540535,11.026018 114.305733,13.688351 
	C110.321144,15.389817 105.593079,15.310216 101.533104,16.889668 
	C98.984306,17.881229 96.490120,20.105318 95.000137,22.434502 
	C93.345619,25.020920 91.739311,26.336094 88.678886,26.026279 
	C84.213120,25.574205 80.637886,26.275156 80.817528,32.138508 
	C80.845451,33.049759 79.083542,34.767994 78.063591,34.836475 
	C71.704758,35.263424 67.843826,39.771839 63.227516,43.177666 
	C60.149063,45.448891 56.552456,47.005138 53.293713,49.050228 
	C51.759373,50.013130 49.174789,51.531849 49.296093,52.526848 
	C49.897156,57.457153 46.551525,60.293720 44.003494,63.294815 
	C37.576839,70.864212 30.596556,77.962814 24.145658,85.512840 
	C22.234243,87.749931 21.317034,90.847221 20.007586,93.580673 
	C19.662155,94.301765 19.805538,95.413139 19.297169,95.876762 
	C10.996965,103.446381 8.519535,114.273087 3.574730,123.714516 
	C3.142680,124.539459 2.335514,125.167931 1.351292,125.943832 
	C1.000000,84.403824 1.000000,42.807648 1.000000,1.000000 
	C45.354004,1.000000 89.708344,1.000000 134.531342,0.999999 
z"/>
<path fill="#0099d7" opacity="1.000000" stroke="none" 
	d="
M274.535309,107.012299 
	C270.543396,130.292831 261.864441,151.546509 246.818848,170.622070 
	C246.255798,171.338837 246.078506,171.647339 245.901215,171.955841 
	C245.901215,171.955841 245.978455,171.977798 245.718719,172.021667 
	C245.331894,172.372009 245.204819,172.678482 245.077728,172.984955 
	C244.214645,173.646866 243.351562,174.308792 241.327850,175.860809 
	C247.621552,159.544449 248.783493,143.801331 249.295151,127.417206 
	C254.983017,122.280487 260.139038,117.507866 265.544891,113.037369 
	C268.310913,110.749939 271.524200,109.003342 274.535309,107.012299 
z"/>
<path fill="#ff56a1" opacity="1.000000" stroke="none" 
	d="
M139.908630,113.007324 
	C139.596481,121.027130 139.284332,129.046936 138.562225,137.575134 
	C132.324646,141.799744 125.850723,144.476074 121.596527,150.551331 
	C120.219299,152.518112 116.574913,152.897293 113.948166,153.594299 
	C116.741814,139.452408 121.159470,126.299088 128.507416,114.038284 
	C132.593353,113.686539 136.251007,113.346931 139.908630,113.007324 
z"/>
<path fill="#fd4faa" opacity="1.000000" stroke="none" 
	d="
M110.160027,185.995667 
	C110.243248,180.449234 110.326469,174.902802 111.049774,169.169861 
	C113.210861,168.154694 114.824257,167.456558 116.228409,166.462784 
	C117.818810,165.337173 119.166855,163.875122 120.717194,162.685684 
	C124.167313,160.038696 127.543182,157.257248 131.209061,154.941849 
	C133.837250,153.281845 136.886368,152.288300 139.747696,150.997421 
	C140.236526,154.675125 140.725357,158.352844 140.916931,162.656921 
	C139.403183,165.517319 138.644043,168.238434 136.882736,169.892212 
	C132.008377,174.468933 126.489456,178.364075 121.664932,182.987381 
	C118.194878,186.312714 114.813293,188.089157 110.160027,185.995667 
z"/>
<path fill="#07fff6" opacity="1.000000" stroke="none" 
	d="
M163.997192,39.015884 
	C184.759888,40.218430 203.194214,46.797630 217.847565,62.619659 
	C216.529114,62.723156 215.127579,62.506706 212.970932,62.141197 
	C207.477188,61.352375 202.738556,60.712616 197.999924,60.072861 
	C195.625977,60.007915 193.252029,59.942970 190.107269,59.876961 
	C188.880920,59.829075 188.425385,59.782246 187.869019,59.607327 
	C187.425751,59.332138 187.174759,59.443813 186.684021,59.901058 
	C185.901703,59.992146 185.450546,59.996426 184.944855,59.656555 
	C180.017731,52.790253 173.389847,48.351856 166.823074,43.780979 
	C165.443787,42.820915 164.916885,40.636257 163.997192,39.015884 
z"/>
<path fill="#f9fdfd" opacity="1.000000" stroke="none" 
	d="
M128.079117,114.050415 
	C121.159470,126.299088 116.741814,139.452408 113.745667,153.929657 
	C112.705688,158.448746 111.848801,162.224106 110.991913,165.999451 
	C109.563110,165.990677 108.134300,165.981888 106.336716,165.548889 
	C107.311157,158.086792 108.654396,151.048889 110.132790,143.658829 
	C111.823311,138.537796 113.378685,133.768906 115.141899,128.703079 
	C117.186737,123.933357 119.023720,119.460587 121.081833,114.713776 
	C124.194176,109.292755 127.085388,104.145782 130.182281,98.736320 
	C132.652542,95.673615 134.917114,92.873398 137.465973,89.911057 
	C139.650909,87.752686 141.551575,85.756447 143.452225,83.760208 
	C144.640259,85.856201 148.283279,87.268204 144.812927,90.807526 
	C138.887161,98.749039 133.483139,106.399727 128.079117,114.050415 
z"/>
<path fill="#009edb" opacity="1.000000" stroke="none" 
	d="
M257.037201,246.871368 
	C250.161316,241.481888 243.285446,236.092392 235.968689,230.357300 
	C245.358124,224.726944 253.674164,219.740234 262.304138,214.565292 
	C264.600525,216.325424 267.164368,218.290558 269.762817,220.874954 
	C267.919800,223.762878 266.127991,226.109650 264.147522,228.284668 
	C259.336700,233.568100 258.120728,240.185028 257.037201,246.871368 
z"/>
<path fill="#3017e5" opacity="1.000000" stroke="none" 
	d="
M275.090576,129.026627 
	C277.488617,118.536324 279.886658,108.046013 282.238098,97.759453 
	C287.343719,110.049011 287.772644,150.504761 279.545074,172.497955 
	C278.556183,164.855164 277.541687,156.917236 277.649872,148.994629 
	C277.743530,142.135330 278.161469,135.408127 275.090576,129.026627 
z"/>
<path fill="#009ed8" opacity="1.000000" stroke="none" 
	d="
M274.707397,106.620087 
	C271.524200,109.003342 268.310913,110.749939 265.544891,113.037369 
	C260.139038,117.507866 254.983017,122.280487 249.381668,126.964386 
	C248.654480,122.641426 248.269211,118.282089 248.233536,113.320175 
	C255.089966,106.947350 261.460785,101.011574 268.175842,95.494766 
	C270.594269,93.507896 273.840149,92.528183 276.708405,91.088852 
	C276.708405,91.088852 276.910889,91.036049 277.008636,90.998779 
	C276.364075,96.050301 275.621765,101.139091 274.707397,106.620087 
z"/>
<path fill="#00a7de" opacity="1.000000" stroke="none" 
	d="
M276.818268,90.652390 
	C273.840149,92.528183 270.594269,93.507896 268.175842,95.494766 
	C261.460785,101.011574 255.089966,106.947350 248.279053,112.863457 
	C247.356415,109.609909 246.737885,106.210487 246.483002,102.362808 
	C249.851105,99.158081 252.843781,96.388626 255.864212,93.649803 
	C257.811462,91.884094 259.794312,90.157471 261.770203,88.423592 
	C266.482635,84.288406 271.200409,80.159309 275.916016,76.027756 
	C276.253387,80.757156 276.590759,85.486542 276.818268,90.652390 
z"/>
<path fill="#2effe3" opacity="1.000000" stroke="none" 
	d="
M143.597946,83.505142 
	C141.551575,85.756447 139.650909,87.752686 137.084869,89.858002 
	C132.989029,89.069588 130.586517,87.300926 128.257523,84.263725 
	C124.889610,79.871704 120.083786,76.582329 115.891403,72.822540 
	C119.033806,68.252083 122.176216,63.681629 125.666046,59.309772 
	C126.316704,60.276936 126.395638,61.336262 126.957436,61.769653 
	C133.466873,66.791222 133.895966,77.558655 143.698669,79.503334 
	C144.290970,79.620842 144.683411,80.745865 145.168854,81.402069 
	C144.693787,82.018074 144.218735,82.634079 143.597946,83.505142 
z"/>
<path fill="#502ee0" opacity="1.000000" stroke="none" 
	d="
M255.795731,168.414276 
	C258.289154,164.297455 260.782532,160.180618 263.637024,156.276199 
	C267.726898,166.408783 264.029663,176.513184 264.805969,186.480682 
	C265.133362,190.684433 266.776276,194.785736 267.821228,198.933609 
	C264.772064,202.591904 261.722931,206.250183 258.339447,209.508850 
	C258.003418,206.942993 258.112976,204.769989 257.981415,202.611694 
	C257.286316,191.210526 256.530487,179.813034 255.795731,168.414276 
z"/>
<path fill="#5d38e2" opacity="1.000000" stroke="none" 
	d="
M255.502975,168.616425 
	C256.530487,179.813034 257.286316,191.210526 257.981415,202.611694 
	C258.112976,204.769989 258.003418,206.942993 258.009460,209.581833 
	C255.247757,212.023788 252.481674,213.993134 249.365540,215.607422 
	C249.010193,205.714813 249.006531,196.177246 248.998749,186.639679 
	C248.996109,183.405960 248.983063,180.172241 248.974762,176.938522 
	C251.053253,174.231873 253.131744,171.525223 255.502975,168.616425 
z"/>
<path fill="#f84db5" opacity="1.000000" stroke="none" 
	d="
M145.144562,175.948456 
	C146.724594,179.065262 148.304626,182.182068 149.594452,185.652252 
	C148.870514,186.004776 148.436783,186.003906 147.583405,186.001572 
	C140.406189,185.707367 135.826782,189.491287 131.495819,194.053970 
	C127.873482,197.870132 123.895035,201.348282 120.074280,204.976105 
	C117.915413,201.868698 115.756554,198.761307 113.954330,195.312363 
	C120.184021,190.853821 126.360924,187.098175 131.829346,182.499939 
	C135.853699,179.115997 139.372986,175.464996 145.144562,175.948456 
z"/>
<path fill="#4224dd" opacity="1.000000" stroke="none" 
	d="
M268.079742,198.713226 
	C266.776276,194.785736 265.133362,190.684433 264.805969,186.480682 
	C264.029663,176.513184 267.726898,166.408783 263.911835,156.066223 
	C265.581085,151.869766 267.336609,148.095703 269.702637,144.245178 
	C270.875031,145.628250 271.896362,147.078430 271.926300,148.548782 
	C272.170685,160.547073 272.191193,172.549911 272.426331,184.548477 
	C272.443329,185.415573 273.614014,186.260040 274.248291,187.115036 
	C272.278290,190.907639 270.308258,194.700226 268.079742,198.713226 
z"/>
<path fill="#12c9e9" opacity="1.000000" stroke="none" 
	d="
M228.989288,67.081352 
	C227.275894,64.957405 225.721405,62.864483 224.099640,60.097580 
	C226.415802,55.721176 228.593994,51.863365 231.243881,48.362617 
	C233.610977,45.235504 236.498840,42.502579 239.156891,39.595711 
	C243.767273,42.147118 248.377655,44.698528 252.800232,47.608704 
	C249.214935,50.060192 244.011032,51.412819 242.788544,54.396656 
	C240.077759,61.013020 233.685455,62.749722 229.469437,67.153496 
	C229.469437,67.153496 229.148209,67.112373 228.989288,67.081352 
z"/>
<path fill="#06b5e2" opacity="1.000000" stroke="none" 
	d="
M266.125641,59.934906 
	C267.802917,62.198547 269.480225,64.462181 271.057312,67.429749 
	C269.973083,72.005280 267.626984,74.261841 263.667847,75.370155 
	C261.762451,75.903564 260.229950,77.788475 258.543549,79.080887 
	C253.371475,83.044678 248.206650,87.017899 243.039001,90.987465 
	C242.362015,89.566322 241.685028,88.145172 241.141205,86.052170 
	C243.927765,81.675224 246.132584,77.513115 249.336121,74.368454 
	C254.591476,69.209724 260.495300,64.711609 266.125641,59.934906 
z"/>
<path fill="#1effea" opacity="1.000000" stroke="none" 
	d="
M126.783318,57.924858 
	C131.298676,54.008854 135.814026,50.092850 140.705170,46.483414 
	C146.247818,52.190788 149.506927,59.366638 156.897186,62.774212 
	C158.806305,63.654480 159.662598,66.818161 160.763519,69.154099 
	C158.993454,70.530952 157.462372,71.686646 155.931290,72.842339 
	C155.761490,72.861244 155.591690,72.880150 154.867340,72.775650 
	C150.533432,70.381325 145.967102,68.816200 143.153534,65.679092 
	C138.584488,60.584625 133.252090,58.370754 126.783318,57.924858 
z"/>
<path fill="#ff50a6" opacity="1.000000" stroke="none" 
	d="
M110.993149,166.372620 
	C111.848801,162.224106 112.705688,158.448746 113.765083,154.338043 
	C116.574913,152.897293 120.219299,152.518112 121.596527,150.551331 
	C125.850723,144.476074 132.324646,141.799744 138.494858,138.038757 
	C139.176270,142.046402 139.515091,146.098846 139.800812,150.574341 
	C136.886368,152.288300 133.837250,153.281845 131.209061,154.941849 
	C127.543182,157.257248 124.167313,160.038696 120.717194,162.685684 
	C119.166855,163.875122 117.818810,165.337173 116.228409,166.462784 
	C114.824257,167.456558 113.210861,168.154694 111.314835,168.982697 
	C110.958000,168.236618 110.976189,167.491180 110.993149,166.372620 
z"/>
<path fill="#10fff2" opacity="1.000000" stroke="none" 
	d="
M163.667755,38.879044 
	C164.916885,40.636257 165.443787,42.820915 166.823074,43.780979 
	C173.389847,48.351856 180.017731,52.790253 184.653107,59.785873 
	C183.610687,60.534241 182.805527,60.809132 182.000351,61.084023 
	C178.540192,62.050877 175.080017,63.017727 171.288269,64.049065 
	C170.956696,64.113548 171.052444,63.854183 171.036743,63.462234 
	C170.524689,61.406666 170.544815,59.112953 169.432297,58.200974 
	C166.439194,55.747398 162.927170,53.936195 159.695099,51.760147 
	C158.402222,50.889679 156.954315,49.940151 156.188278,48.660633 
	C154.580460,45.975067 153.377472,43.047142 152.008270,40.218719 
	C155.784958,39.726547 159.561630,39.234371 163.667755,38.879044 
z"/>
<path fill="#04aee0" opacity="1.000000" stroke="none" 
	d="
M243.050110,91.370636 
	C248.206650,87.017899 253.371475,83.044678 258.543549,79.080887 
	C260.229950,77.788475 261.762451,75.903564 263.667847,75.370155 
	C267.626984,74.261841 269.973083,72.005280 271.106567,67.751541 
	C272.789978,70.022339 274.323944,72.675285 275.886963,75.677994 
	C271.200409,80.159309 266.482635,84.288406 261.770203,88.423592 
	C259.794312,90.157471 257.811462,91.884094 255.864212,93.649803 
	C252.843781,96.388626 249.851105,99.158081 246.511475,101.960175 
	C245.137909,98.588470 244.099548,95.171143 243.050110,91.370636 
z"/>
<path fill="#f045d9" opacity="1.000000" stroke="none" 
	d="
M184.256958,220.866272 
	C194.325470,224.383545 204.393982,227.900833 214.684418,231.495636 
	C200.584427,234.781723 186.615204,234.386765 172.316193,232.048950 
	C176.102142,227.938538 180.179550,224.402405 184.256958,220.866272 
z"/>
<path fill="#0dc2e7" opacity="1.000000" stroke="none" 
	d="
M229.618835,67.475815 
	C233.685455,62.749722 240.077759,61.013020 242.788544,54.396656 
	C244.011032,51.412819 249.214935,50.060192 253.000427,47.893005 
	C254.873688,48.865986 256.358948,49.913425 257.889893,51.575085 
	C255.653412,55.111748 253.435684,58.088017 251.059387,60.931782 
	C250.017975,62.178074 248.014725,62.932724 247.544250,64.290421 
	C245.418472,70.424942 241.371765,74.023354 234.983368,75.030838 
	C233.244980,72.619934 231.506592,70.209030 229.618835,67.475815 
z"/>
<path fill="#04aee0" opacity="1.000000" stroke="none" 
	d="
M272.995941,256.785767 
	C269.415466,254.778503 265.834991,252.771225 262.231018,250.155151 
	C265.592529,245.408295 269.022491,241.306000 272.348022,237.120667 
	C274.947510,233.849091 277.417297,230.474487 279.944733,227.145660 
	C283.214142,228.856720 286.483521,230.567795 289.751831,232.895081 
	C284.944183,238.812729 279.931396,243.947815 275.446381,249.508545 
	C273.939087,251.377380 273.774323,254.329025 272.995941,256.785767 
z"/>
<path fill="#6e45e5" opacity="1.000000" stroke="none" 
	d="
M248.620667,177.010544 
	C248.983063,180.172241 248.996109,183.405960 248.998749,186.639679 
	C249.006531,196.177246 249.010193,205.714813 249.028641,215.706024 
	C246.581818,217.672165 244.121841,219.184677 241.272156,220.380173 
	C240.591431,217.286453 240.016144,214.503891 240.073318,211.734360 
	C240.168488,207.122620 241.145264,202.487549 240.841263,197.922867 
	C240.616821,194.552734 238.944717,191.279022 237.917603,187.962372 
	C241.367249,184.335770 244.816910,180.709167 248.620667,177.010544 
z"/>
<path fill="#f148c1" opacity="1.000000" stroke="none" 
	d="
M145.011795,224.938965 
	C140.408752,222.172958 135.805710,219.406952 131.383087,216.303833 
	C136.735138,212.433762 141.903870,208.896545 147.079391,205.369293 
	C150.676559,202.917725 154.283096,200.479889 157.885452,198.035934 
	C158.844620,199.161362 159.803802,200.286789 160.875824,202.078552 
	C156.867599,207.711761 153.136154,213.093719 148.466934,217.476624 
	C145.999619,219.792679 144.647156,221.730331 145.011795,224.938965 
z"/>
<path fill="#f44abd" opacity="1.000000" stroke="none" 
	d="
M157.786224,197.714005 
	C154.283096,200.479889 150.676559,202.917725 147.079391,205.369293 
	C141.903870,208.896545 136.735138,212.433762 131.198990,216.016571 
	C128.695099,214.232666 126.555695,212.398911 124.675667,210.274048 
	C130.822128,210.647552 132.306778,204.588257 136.294815,202.559982 
	C143.281067,199.006821 146.380234,193.129211 148.003052,186.003052 
	C148.436783,186.003906 148.870514,186.004776 149.629486,186.008362 
	C152.532166,189.804749 155.109573,193.598419 157.786224,197.714005 
z"/>
<path fill="#371ddf" opacity="1.000000" stroke="none" 
	d="
M274.539856,186.923691 
	C273.614014,186.260040 272.443329,185.415573 272.426331,184.548477 
	C272.191193,172.549911 272.170685,160.547073 271.926300,148.548782 
	C271.896362,147.078430 270.875031,145.628250 269.916870,143.984558 
	C271.241364,139.069443 272.962067,134.338516 274.886658,129.317108 
	C278.161469,135.408127 277.743530,142.135330 277.649872,148.994629 
	C277.541687,156.917236 278.556183,164.855164 279.465332,172.889420 
	C278.175446,177.572388 276.503418,182.152374 274.539856,186.923691 
z"/>
<path fill="#ee47c6" opacity="1.000000" stroke="none" 
	d="
M145.272552,225.176758 
	C144.647156,221.730331 145.999619,219.792679 148.466934,217.476624 
	C153.136154,213.093719 156.867599,207.711761 160.992981,202.377289 
	C163.553116,204.518951 166.108932,207.028259 168.818314,210.204742 
	C166.630234,214.431610 164.584930,218.241699 161.854752,221.473114 
	C159.604050,224.137024 156.542206,226.115585 153.839844,228.397888 
	C151.070999,227.403442 148.302139,226.408997 145.272552,225.176758 
z"/>
<path fill="#ea45cb" opacity="1.000000" stroke="none" 
	d="
M154.130356,228.606201 
	C156.542206,226.115585 159.604050,224.137024 161.854752,221.473114 
	C164.584930,218.241699 166.630234,214.431610 168.964783,210.506012 
	C173.911133,213.537964 178.864594,216.935791 184.037506,220.599945 
	C180.179550,224.402405 176.102142,227.938538 171.976959,231.835022 
	C166.093094,231.068420 160.256973,229.941467 154.130356,228.606201 
z"/>
<path fill="#00a7de" opacity="1.000000" stroke="none" 
	d="
M279.707642,226.905579 
	C277.417297,230.474487 274.947510,233.849091 272.348022,237.120667 
	C269.022491,241.306000 265.592529,245.408295 262.061279,249.864960 
	C260.414764,249.260117 258.914520,248.336685 257.225739,247.142303 
	C258.120728,240.185028 259.336700,233.568100 264.147522,228.284668 
	C266.127991,226.109650 267.919800,223.762878 269.936859,221.170471 
	C273.207703,222.786331 276.339111,224.725922 279.707642,226.905579 
z"/>
<path fill="#0abbe4" opacity="1.000000" stroke="none" 
	d="
M234.998108,75.389328 
	C241.371765,74.023354 245.418472,70.424942 247.544250,64.290421 
	C248.014725,62.932724 250.017975,62.178074 251.059387,60.931782 
	C253.435684,58.088017 255.653412,55.111748 258.078430,51.818771 
	C260.776947,54.064503 263.332611,56.680771 266.006958,59.615974 
	C260.495300,64.711609 254.591476,69.209724 249.336121,74.368454 
	C246.132584,77.513115 243.927765,81.675224 241.130478,85.703491 
	C238.995346,82.600372 237.004089,79.174095 234.998108,75.389328 
z"/>
<path fill="#0dc2e7" opacity="1.000000" stroke="none" 
	d="
M296.988953,235.174133 
	C303.696320,235.958176 304.098724,241.171555 304.327759,246.611557 
	C302.278961,248.501984 300.463654,249.840363 299.051392,251.518051 
	C295.594055,255.625275 292.322876,259.889191 288.976807,264.090057 
	C286.096436,262.927307 283.216095,261.764557 280.410706,260.181061 
	C281.630920,258.356842 282.913361,257.042877 283.897888,255.534470 
	C288.307922,248.777939 292.633118,241.966049 296.988953,235.174133 
z"/>
<path fill="#fa4db1" opacity="1.000000" stroke="none" 
	d="
M145.114212,175.560333 
	C139.372986,175.464996 135.853699,179.115997 131.829346,182.499939 
	C126.360924,187.098175 120.184021,190.853821 113.991318,194.990021 
	C112.468788,192.254715 111.265907,189.500214 110.111526,186.370697 
	C114.813293,188.089157 118.194878,186.312714 121.664932,182.987381 
	C126.489456,178.364075 132.008377,174.468933 136.882736,169.892212 
	C138.644043,168.238434 139.403183,165.517319 140.939774,163.082672 
	C142.534561,166.978790 143.809219,171.075500 145.114212,175.560333 
z"/>
<path fill="#26ffe7" opacity="1.000000" stroke="none" 
	d="
M126.572594,57.985893 
	C133.252090,58.370754 138.584488,60.584625 143.153534,65.679092 
	C145.967102,68.816200 150.533432,70.381325 154.612701,72.804352 
	C151.864197,75.657417 148.815796,78.358383 145.468140,81.230713 
	C144.683411,80.745865 144.290970,79.620842 143.698669,79.503334 
	C133.895966,77.558655 133.466873,66.791222 126.957436,61.769653 
	C126.395638,61.336262 126.316704,60.276936 125.963356,59.140030 
	C125.944817,58.457077 126.094360,58.215488 126.572594,57.985893 
z"/>
<path fill="#06b5e2" opacity="1.000000" stroke="none" 
	d="
M296.623474,235.099792 
	C292.633118,241.966049 288.307922,248.777939 283.897888,255.534470 
	C282.913361,257.042877 281.630920,258.356842 280.174164,259.917511 
	C277.766327,259.111786 275.669952,258.148865 273.284790,256.985840 
	C273.774323,254.329025 273.939087,251.377380 275.446381,249.508545 
	C279.931396,243.947815 284.944183,238.812729 289.900757,233.201355 
	C292.119873,233.602768 294.188904,234.314102 296.623474,235.099792 
z"/>
<path fill="#f549b8" opacity="1.000000" stroke="none" 
	d="
M147.583405,186.001572 
	C146.380234,193.129211 143.281067,199.006821 136.294815,202.559982 
	C132.306778,204.588257 130.822128,210.647552 124.551514,209.973053 
	C122.813400,208.528122 121.458824,207.093048 120.089264,205.317047 
	C123.895035,201.348282 127.873482,197.870132 131.495819,194.053970 
	C135.826782,189.491287 140.406189,185.707367 147.583405,186.001572 
z"/>
<path fill="#7c4ee9" opacity="1.000000" stroke="none" 
	d="
M237.616165,188.077728 
	C238.944717,191.279022 240.616821,194.552734 240.841263,197.922867 
	C241.145264,202.487549 240.168488,207.122620 240.073318,211.734360 
	C240.016144,214.503891 240.591431,217.286453 240.940903,220.462982 
	C238.928665,221.938477 236.858017,223.014145 234.285736,223.791016 
	C233.189407,220.271759 232.095673,217.050400 232.101242,213.830948 
	C232.113815,206.560410 232.669571,199.290817 233.004364,192.020828 
	C234.441147,190.744919 235.877945,189.469025 237.616165,188.077728 
z"/>
<path fill="#b97af6" opacity="1.000000" stroke="none" 
	d="
M193.019470,206.084076 
	C198.072037,205.418839 203.124603,204.753586 208.590027,204.563293 
	C208.994095,211.115631 208.985321,217.193008 208.976532,223.270386 
	C204.472565,222.038528 199.968613,220.806656 195.230164,218.878769 
	C194.336929,214.149857 193.678207,210.116974 193.019470,206.084076 
z"/>
<path fill="#8b5aea" opacity="1.000000" stroke="none" 
	d="
M232.679260,192.123444 
	C232.669571,199.290817 232.113815,206.560410 232.101242,213.830948 
	C232.095673,217.050400 233.189407,220.271759 233.941559,223.868698 
	C231.349197,224.761475 228.599380,225.277802 225.430511,225.271271 
	C225.020294,215.644699 225.029114,206.540985 225.037933,197.437271 
	C227.476685,195.700195 229.915421,193.963120 232.679260,192.123444 
z"/>
<path fill="#52ffd4" opacity="1.000000" stroke="none" 
	d="
M120.860703,114.987823 
	C119.023720,119.460587 117.186737,123.933357 114.791901,128.661469 
	C113.264107,128.102737 111.734993,127.461990 111.419769,126.444992 
	C109.956848,121.725372 106.469200,120.819046 102.231697,120.994263 
	C102.494606,117.935539 102.757515,114.876823 102.969788,111.409920 
	C103.146858,110.042168 103.374565,109.082596 103.742065,107.662712 
	C103.881859,107.202400 104.116928,107.025154 104.477997,107.063477 
	C107.504646,108.787888 110.060036,110.695183 112.868591,112.094261 
	C115.387924,113.349258 118.185745,114.045235 120.860703,114.987823 
z"/>
<path fill="#9b66ee" opacity="1.000000" stroke="none" 
	d="
M224.707489,197.490295 
	C225.029114,206.540985 225.020294,215.644699 225.020203,225.187042 
	C222.151077,225.378571 219.273193,225.131470 216.237518,224.313232 
	C218.793289,216.496536 218.331329,209.256516 216.041977,202.019684 
	C218.820328,200.527557 221.598679,199.035446 224.707489,197.490295 
z"/>
<path fill="#5cffd0" opacity="1.000000" stroke="none" 
	d="
M102.135147,121.454407 
	C106.469200,120.819046 109.956848,121.725372 111.419769,126.444992 
	C111.734993,127.461990 113.264107,128.102737 114.584061,128.958405 
	C113.378685,133.768906 111.823311,138.537796 109.778336,143.616760 
	C106.877777,142.619766 104.466843,141.312683 102.055908,140.005600 
	C102.050133,133.975250 102.044365,127.944893 102.135147,121.454407 
z"/>
<path fill="#d692fb" opacity="1.000000" stroke="none" 
	d="
M192.597382,206.022491 
	C193.678207,210.116974 194.336929,214.149857 194.987732,218.620209 
	C184.749283,216.352814 177.025360,209.798401 168.863052,202.452560 
	C177.204453,203.707886 184.689865,204.834381 192.597382,206.022491 
z"/>
<path fill="#12c9e9" opacity="1.000000" stroke="none" 
	d="
M289.180573,264.428040 
	C292.322876,259.889191 295.594055,255.625275 299.051392,251.518051 
	C300.463654,249.840363 302.278961,248.501984 304.251465,246.997482 
	C304.367584,252.213333 304.272522,257.451141 303.860535,262.663910 
	C303.673279,265.033356 302.211456,266.410645 299.523163,266.019440 
	C296.154083,265.529236 292.764862,265.177521 289.180573,264.428040 
z"/>
<path fill="#a86ef2" opacity="1.000000" stroke="none" 
	d="
M215.667542,202.038605 
	C218.331329,209.256516 218.793289,216.496536 215.898773,224.154922 
	C213.694733,224.254501 211.671646,223.941238 209.312546,223.449188 
	C208.985321,217.193008 208.994095,211.115631 209.005905,204.579895 
	C211.103653,203.433548 213.198364,202.745560 215.667542,202.038605 
z"/>
<path fill="#ff679c" opacity="1.000000" stroke="none" 
	d="
M128.507416,114.038284 
	C133.483139,106.399727 138.887161,98.749039 144.631348,91.087082 
	C143.357910,98.131927 141.744293,105.188042 140.019653,112.625732 
	C136.251007,113.346931 132.593353,113.686539 128.507416,114.038284 
z"/>
<path fill="#ff679c" opacity="1.000000" stroke="none" 
	d="
M101.980347,140.443954 
	C104.466843,141.312683 106.877777,142.619766 109.643173,143.968903 
	C108.654396,151.048889 107.311157,158.086792 105.908371,165.530243 
	C104.912331,165.029266 103.235085,164.181915 103.157188,163.206787 
	C102.563904,155.779343 102.282974,148.326935 101.980347,140.443954 
z"/>
<path fill="#f9fdfd" opacity="1.000000" stroke="none" 
	d="
M156.188904,73.154236 
	C157.462372,71.686646 158.993454,70.530952 161.103668,69.094772 
	C164.806015,67.160912 167.929230,65.507545 171.052444,63.854179 
	C171.052444,63.854183 170.956696,64.113548 170.937271,64.250412 
	C171.062286,72.018501 166.068634,75.151360 156.188904,73.154236 
z"/>
<path fill="none" opacity="1.000000" stroke="none" 
	d="
M198.039948,60.428207 
	C202.738556,60.712616 207.477188,61.352375 212.609741,62.124470 
	C212.093643,66.240356 208.657471,66.839119 205.649002,66.795135 
	C201.990906,66.741638 199.008408,64.794724 198.039948,60.428207 
z"/>
<path fill="#f9fdfd" opacity="1.000000" stroke="none" 
	d="
M182.082397,61.447903 
	C182.805527,60.809132 183.610687,60.534241 184.707626,60.130028 
	C185.450546,59.996426 185.901703,59.992146 186.928513,59.951691 
	C187.504166,59.915520 187.969864,59.735420 187.969864,59.735420 
	C188.425385,59.782246 188.880920,59.829075 189.668579,59.964054 
	C188.096497,63.791275 185.384521,63.932877 182.082397,61.447903 
z"/>
<path fill="#f9fdfd" opacity="1.000000" stroke="none" 
	d="
M218.100006,63.403435 
	C218.695343,63.510841 219.310608,63.930496 219.966461,64.659485 
	C219.378006,64.551109 218.748962,64.133392 218.100006,63.403435 
z"/>
<path fill="none" opacity="1.000000" stroke="none" 
	d="
M245.287170,172.863159 
	C245.204819,172.678482 245.331894,172.372009 245.704514,171.984131 
	C245.902832,172.238480 245.751678,172.518036 245.287170,172.863159 
z"/>
<path fill="none" opacity="1.000000" stroke="none" 
	d="
M246.149994,171.846466 
	C246.078506,171.647339 246.255798,171.338837 246.686340,170.926300 
	C246.759293,171.127213 246.579010,171.432159 246.149994,171.846466 
z"/>
<path fill="#47ffd8" opacity="1.000000" stroke="none" 
	d="
M121.081833,114.713776 
	C118.185745,114.045235 115.387924,113.349258 112.868591,112.094261 
	C110.060036,110.695183 107.504646,108.787888 104.452332,106.650261 
	C105.163239,101.184723 106.260880,96.170738 107.358521,91.156746 
	C107.625137,90.530754 107.891762,89.904762 108.708328,89.120445 
	C112.033691,90.669312 114.919991,92.222412 117.557991,94.120575 
	C121.313553,96.822884 124.894707,99.758652 129.976593,98.998810 
	C127.085388,104.145782 124.194176,109.292755 121.081833,114.713776 
z"/>
<path fill="#3affde" opacity="1.000000" stroke="none" 
	d="
M130.182297,98.736328 
	C124.894707,99.758652 121.313553,96.822884 117.557991,94.120575 
	C114.919991,92.222412 112.033691,90.669312 108.860855,88.908157 
	C110.765991,83.666588 113.068558,78.478981 115.631271,73.056961 
	C120.083786,76.582329 124.889610,79.871704 128.257523,84.263725 
	C130.586517,87.300926 132.989029,89.069588 136.800568,90.020126 
	C134.917114,92.873398 132.652542,95.673615 130.182297,98.736328 
z"/>
<path fill="#16ffee" opacity="1.000000" stroke="none" 
	d="
M171.036743,63.462231 
	C167.929230,65.507545 164.806015,67.160912 161.342651,68.873611 
	C159.662598,66.818161 158.806305,63.654480 156.897186,62.774212 
	C149.506927,59.366638 146.247818,52.190788 141.042938,46.452980 
	C144.439514,44.164948 147.874100,42.213921 151.658478,40.240807 
	C153.377472,43.047142 154.580460,45.975067 156.188278,48.660633 
	C156.954315,49.940151 158.402222,50.889679 159.695099,51.760147 
	C162.927170,53.936195 166.439194,55.747398 169.432297,58.200974 
	C170.544815,59.112953 170.524689,61.406666 171.036743,63.462231 
z"/>
<path fill="#17d6f1" opacity="1.000000" stroke="none" 
	d="
M238.902969,39.367981 
	C236.498840,42.502579 233.610977,45.235504 231.243881,48.362617 
	C228.593994,51.863365 226.415802,55.721176 223.982574,59.792274 
	C220.384995,56.988155 216.837189,53.815361 213.143982,50.084965 
	C213.001266,49.351624 213.003983,49.175888 213.307739,48.852654 
	C218.112228,44.358635 222.615646,40.012119 227.119064,35.665604 
	C230.962387,36.823818 234.805725,37.982037 238.902969,39.367981 
z"/>
<path fill="#2aebff" opacity="1.000000" stroke="none" 
	d="
M210.009186,47.974594 
	C198.885025,43.061184 187.760864,38.147774 176.701202,33.262852 
	C187.479996,31.116652 198.903427,31.643129 210.543793,33.002815 
	C204.806992,40.071037 204.810532,40.068474 209.836700,47.018391 
	C210.007797,47.254978 209.956711,47.652233 210.009186,47.974594 
z"/>
<path fill="#1ae6fd" opacity="1.000000" stroke="none" 
	d="
M210.122635,48.208321 
	C209.956711,47.652233 210.007797,47.254978 209.836700,47.018391 
	C204.810532,40.068474 204.806992,40.071037 210.892410,33.226887 
	C216.199631,33.689190 221.360672,34.461224 226.820404,35.449432 
	C222.615646,40.012119 218.112228,44.358635 212.948502,48.883709 
	C212.050552,49.098137 211.812912,49.134003 211.575256,49.169872 
	C211.128860,48.927261 210.682480,48.684654 210.122635,48.208321 
z"/>
<path fill="none" opacity="1.000000" stroke="none" 
	d="
M106.997665,91.007957 
	C106.260880,96.170738 105.163239,101.184723 104.091263,106.611938 
	C104.116928,107.025154 103.881859,107.202400 103.766869,107.293304 
	C102.832840,102.571663 101.521744,97.770813 101.406898,92.941513 
	C101.351295,90.603638 103.936653,89.244675 106.997665,91.007957 
z"/>
<path fill="#2aebff" opacity="1.000000" stroke="none" 
	d="
M211.743530,49.405388 
	C211.812912,49.134003 212.050552,49.098137 212.647430,49.031212 
	C213.003983,49.175888 213.001266,49.351624 212.988190,49.790829 
	C212.622467,49.916500 212.267136,49.778706 211.743530,49.405388 
z"/>
<path fill="#10fff2" opacity="1.000000" stroke="none" 
	d="
M187.869019,59.607327 
	C187.969864,59.735420 187.504166,59.915520 187.259674,59.864883 
	C187.174759,59.443813 187.425751,59.332138 187.869019,59.607327 
z"/>
</svg>
