<svg xmlns="http://www.w3.org/2000/svg" viewBox="0 0 512 512" width="512" height="512" role="img" aria-label="Skittermouse logo">
  <defs><linearGradient id="mBody" x1="0" y1="0" x2="0" y2="1"><stop offset="0" stop-color="#cfd8df"/><stop offset="1" stop-color="#96a2ac"/></linearGradient></defs>
  <path d="M408.0 236.0 A152 152 0 0 1 407.3 250.9" stroke="#3398eb" stroke-width="46" fill="none" stroke-linecap="round"/><path d="M407.7 245.9 A152 152 0 0 1 406.0 260.8" stroke="#338deb" stroke-width="46" fill="none" stroke-linecap="round"/><path d="M406.7 255.8 A152 152 0 0 1 404.0 270.5" stroke="#3381eb" stroke-width="46" fill="none" stroke-linecap="round"/><path d="M405.1 265.7 A152 152 0 0 1 401.5 280.1" stroke="#3376eb" stroke-width="46" fill="none" stroke-linecap="round"/><path d="M402.8 275.3 A152 152 0 0 1 398.3 289.5" stroke="#336aeb" stroke-width="46" fill="none" stroke-linecap="round"/><path d="M399.9 284.9 A152 152 0 0 1 394.5 298.7" stroke="#335feb" stroke-width="46" fill="none" stroke-linecap="round"/><path d="M396.4 294.2 A152 152 0 0 1 390.1 307.7" stroke="#3353eb" stroke-width="46" fill="none" stroke-linecap="round"/><path d="M392.3 303.2 A152 152 0 0 1 385.1 316.3" stroke="#3348eb" stroke-width="46" fill="none" stroke-linecap="round"/><path d="M387.6 312.0 A152 152 0 0 1 379.6 324.5" stroke="#333ceb" stroke-width="46" fill="none" stroke-linecap="round"/><path d="M382.4 320.4 A152 152 0 0 1 373.5 332.4" stroke="#3533eb" stroke-width="46" fill="none" stroke-linecap="round"/><path d="M376.6 328.5 A152 152 0 0 1 366.9 339.9" stroke="#4033eb" stroke-width="46" fill="none" stroke-linecap="round"/><path d="M370.3 336.2 A152 152 0 0 1 359.9 346.9" stroke="#4c33eb" stroke-width="46" fill="none" stroke-linecap="round"/><path d="M363.5 343.5 A152 152 0 0 1 352.4 353.5" stroke="#5733eb" stroke-width="46" fill="none" stroke-linecap="round"/><path d="M356.2 350.3 A152 152 0 0 1 344.5 359.6" stroke="#6333eb" stroke-width="46" fill="none" stroke-linecap="round"/><path d="M348.5 356.6 A152 152 0 0 1 336.3 365.1" stroke="#6e33eb" stroke-width="46" fill="none" stroke-linecap="round"/><path d="M340.4 362.4 A152 152 0 0 1 327.7 370.1" stroke="#7a33eb" stroke-width="46" fill="none" stroke-linecap="round"/><path d="M332.0 367.6 A152 152 0 0 1 318.7 374.5" stroke="#8533eb" stroke-width="46" fill="none" stroke-linecap="round"/><path d="M323.2 372.3 A152 152 0 0 1 309.5 378.3" stroke="#9133eb" stroke-width="46" fill="none" stroke-linecap="round"/><path d="M314.2 376.4 A152 152 0 0 1 300.1 381.5" stroke="#9c33eb" stroke-width="46" fill="none" stroke-linecap="round"/><path d="M304.9 379.9 A152 152 0 0 1 290.5 384.0" stroke="#a833eb" stroke-width="46" fill="none" stroke-linecap="round"/><path d="M295.3 382.8 A152 152 0 0 1 280.8 386.0" stroke="#b333eb" stroke-width="46" fill="none" stroke-linecap="round"/><path d="M285.7 385.1 A152 152 0 0 1 270.9 387.3" stroke="#bf33eb" stroke-width="46" fill="none" stroke-linecap="round"/><path d="M275.8 386.7 A152 152 0 0 1 261.0 387.9" stroke="#ca33eb" stroke-width="46" fill="none" stroke-linecap="round"/><path d="M265.9 387.7 A152 152 0 0 1 251.0 387.9" stroke="#d633eb" stroke-width="46" fill="none" stroke-linecap="round"/><path d="M256.0 388.0 A152 152 0 0 1 241.1 387.3" stroke="#e133eb" stroke-width="46" fill="none" stroke-linecap="round"/><path d="M246.1 387.7 A152 152 0 0 1 231.2 386.0" stroke="#eb33e9" stroke-width="46" fill="none" stroke-linecap="round"/><path d="M236.2 386.7 A152 152 0 0 1 221.5 384.0" stroke="#eb33dd" stroke-width="46" fill="none" stroke-linecap="round"/><path d="M226.3 385.1 A152 152 0 0 1 211.9 381.5" stroke="#eb33d2" stroke-width="46" fill="none" stroke-linecap="round"/><path d="M216.7 382.8 A152 152 0 0 1 202.5 378.3" stroke="#eb33c6" stroke-width="46" fill="none" stroke-linecap="round"/><path d="M207.1 379.9 A152 152 0 0 1 193.3 374.5" stroke="#eb33bb" stroke-width="46" fill="none" stroke-linecap="round"/><path d="M197.8 376.4 A152 152 0 0 1 184.3 370.1" stroke="#eb33af" stroke-width="46" fill="none" stroke-linecap="round"/><path d="M188.8 372.3 A152 152 0 0 1 175.7 365.1" stroke="#eb33a4" stroke-width="46" fill="none" stroke-linecap="round"/><path d="M180.0 367.6 A152 152 0 0 1 167.5 359.6" stroke="#eb3398" stroke-width="46" fill="none" stroke-linecap="round"/><path d="M171.6 362.4 A152 152 0 0 1 159.6 353.5" stroke="#eb338d" stroke-width="46" fill="none" stroke-linecap="round"/><path d="M163.5 356.6 A152 152 0 0 1 152.1 346.9" stroke="#eb3381" stroke-width="46" fill="none" stroke-linecap="round"/><path d="M155.8 350.3 A152 152 0 0 1 145.1 339.9" stroke="#eb3376" stroke-width="46" fill="none" stroke-linecap="round"/><path d="M148.5 343.5 A152 152 0 0 1 138.5 332.4" stroke="#eb336a" stroke-width="46" fill="none" stroke-linecap="round"/><path d="M141.7 336.2 A152 152 0 0 1 132.4 324.5" stroke="#eb335f" stroke-width="46" fill="none" stroke-linecap="round"/><path d="M135.4 328.5 A152 152 0 0 1 126.9 316.3" stroke="#eb3353" stroke-width="46" fill="none" stroke-linecap="round"/><path d="M129.6 320.4 A152 152 0 0 1 121.9 307.7" stroke="#eb3348" stroke-width="46" fill="none" stroke-linecap="round"/><path d="M124.4 312.0 A152 152 0 0 1 117.5 298.7" stroke="#eb333c" stroke-width="46" fill="none" stroke-linecap="round"/><path d="M119.7 303.2 A152 152 0 0 1 113.7 289.5" stroke="#eb3533" stroke-width="46" fill="none" stroke-linecap="round"/><path d="M115.6 294.2 A152 152 0 0 1 110.5 280.1" stroke="#eb4033" stroke-width="46" fill="none" stroke-linecap="round"/><path d="M112.1 284.9 A152 152 0 0 1 108.0 270.5" stroke="#eb4c33" stroke-width="46" fill="none" stroke-linecap="round"/><path d="M109.2 275.3 A152 152 0 0 1 106.0 260.8" stroke="#eb5733" stroke-width="46" fill="none" stroke-linecap="round"/><path d="M106.9 265.7 A152 152 0 0 1 104.7 250.9" stroke="#eb6333" stroke-width="46" fill="none" stroke-linecap="round"/><path d="M105.3 255.8 A152 152 0 0 1 104.1 241.0" stroke="#eb6e33" stroke-width="46" fill="none" stroke-linecap="round"/><path d="M104.3 245.9 A152 152 0 0 1 104.1 231.0" stroke="#eb7a33" stroke-width="46" fill="none" stroke-linecap="round"/><path d="M104.0 236.0 A152 152 0 0 1 104.7 221.1" stroke="#eb8533" stroke-width="46" fill="none" stroke-linecap="round"/><path d="M104.3 226.1 A152 152 0 0 1 106.0 211.2" stroke="#eb9133" stroke-width="46" fill="none" stroke-linecap="round"/><path d="M105.3 216.2 A152 152 0 0 1 108.0 201.5" stroke="#eb9c33" stroke-width="46" fill="none" stroke-linecap="round"/><path d="M106.9 206.3 A152 152 0 0 1 110.5 191.9" stroke="#eba833" stroke-width="46" fill="none" stroke-linecap="round"/><path d="M109.2 196.7 A152 152 0 0 1 113.7 182.5" stroke="#ebb333" stroke-width="46" fill="none" stroke-linecap="round"/><path d="M112.1 187.1 A152 152 0 0 1 117.5 173.3" stroke="#ebbf33" stroke-width="46" fill="none" stroke-linecap="round"/><path d="M115.6 177.8 A152 152 0 0 1 121.9 164.3" stroke="#ebca33" stroke-width="46" fill="none" stroke-linecap="round"/><path d="M119.7 168.8 A152 152 0 0 1 126.9 155.7" stroke="#ebd633" stroke-width="46" fill="none" stroke-linecap="round"/><path d="M124.4 160.0 A152 152 0 0 1 132.4 147.5" stroke="#ebe133" stroke-width="46" fill="none" stroke-linecap="round"/><path d="M129.6 151.6 A152 152 0 0 1 138.5 139.6" stroke="#e9eb33" stroke-width="46" fill="none" stroke-linecap="round"/><path d="M135.4 143.5 A152 152 0 0 1 145.1 132.1" stroke="#ddeb33" stroke-width="46" fill="none" stroke-linecap="round"/><path d="M141.7 135.8 A152 152 0 0 1 152.1 125.1" stroke="#d2eb33" stroke-width="46" fill="none" stroke-linecap="round"/><path d="M148.5 128.5 A152 152 0 0 1 159.6 118.5" stroke="#c6eb33" stroke-width="46" fill="none" stroke-linecap="round"/><path d="M155.8 121.7 A152 152 0 0 1 167.5 112.4" stroke="#bbeb33" stroke-width="46" fill="none" stroke-linecap="round"/><path d="M163.5 115.4 A152 152 0 0 1 175.7 106.9" stroke="#afeb33" stroke-width="46" fill="none" stroke-linecap="round"/><path d="M171.6 109.6 A152 152 0 0 1 184.3 101.9" stroke="#a4eb33" stroke-width="46" fill="none" stroke-linecap="round"/><path d="M180.0 104.4 A152 152 0 0 1 193.3 97.5" stroke="#98eb33" stroke-width="46" fill="none" stroke-linecap="round"/><path d="M188.8 99.7 A152 152 0 0 1 202.5 93.7" stroke="#8deb33" stroke-width="46" fill="none" stroke-linecap="round"/><path d="M197.8 95.6 A152 152 0 0 1 211.9 90.5" stroke="#81eb33" stroke-width="46" fill="none" stroke-linecap="round"/><path d="M207.1 92.1 A152 152 0 0 1 221.5 88.0" stroke="#76eb33" stroke-width="46" fill="none" stroke-linecap="round"/><path d="M216.7 89.2 A152 152 0 0 1 231.2 86.0" stroke="#6aeb33" stroke-width="46" fill="none" stroke-linecap="round"/><path d="M226.3 86.9 A152 152 0 0 1 241.1 84.7" stroke="#5feb33" stroke-width="46" fill="none" stroke-linecap="round"/><path d="M236.2 85.3 A152 152 0 0 1 251.0 84.1" stroke="#53eb33" stroke-width="46" fill="none" stroke-linecap="round"/><path d="M246.1 84.3 A152 152 0 0 1 261.0 84.1" stroke="#48eb33" stroke-width="46" fill="none" stroke-linecap="round"/><path d="M256.0 84.0 A152 152 0 0 1 270.9 84.7" stroke="#3ceb33" stroke-width="46" fill="none" stroke-linecap="round"/><path d="M265.9 84.3 A152 152 0 0 1 280.8 86.0" stroke="#33eb35" stroke-width="46" fill="none" stroke-linecap="round"/><path d="M275.8 85.3 A152 152 0 0 1 290.5 88.0" stroke="#33eb40" stroke-width="46" fill="none" stroke-linecap="round"/><path d="M285.7 86.9 A152 152 0 0 1 300.1 90.5" stroke="#33eb4c" stroke-width="46" fill="none" stroke-linecap="round"/><path d="M295.3 89.2 A152 152 0 0 1 309.5 93.7" stroke="#33eb57" stroke-width="46" fill="none" stroke-linecap="round"/><path d="M304.9 92.1 A152 152 0 0 1 318.7 97.5" stroke="#33eb63" stroke-width="46" fill="none" stroke-linecap="round"/><path d="M314.2 95.6 A152 152 0 0 1 327.7 101.9" stroke="#33eb6e" stroke-width="46" fill="none" stroke-linecap="round"/><path d="M323.2 99.7 A152 152 0 0 1 336.3 106.9" stroke="#33eb7a" stroke-width="46" fill="none" stroke-linecap="round"/><path d="M332.0 104.4 A152 152 0 0 1 344.5 112.4" stroke="#33eb85" stroke-width="46" fill="none" stroke-linecap="round"/><path d="M340.4 109.6 A152 152 0 0 1 352.4 118.5" stroke="#33eb91" stroke-width="46" fill="none" stroke-linecap="round"/><path d="M348.5 115.4 A152 152 0 0 1 359.9 125.1" stroke="#33eb9c" stroke-width="46" fill="none" stroke-linecap="round"/><path d="M356.2 121.7 A152 152 0 0 1 366.9 132.1" stroke="#33eba8" stroke-width="46" fill="none" stroke-linecap="round"/><path d="M363.5 128.5 A152 152 0 0 1 373.5 139.6" stroke="#33ebb3" stroke-width="46" fill="none" stroke-linecap="round"/><path d="M370.3 135.8 A152 152 0 0 1 379.6 147.5" stroke="#33ebbf" stroke-width="46" fill="none" stroke-linecap="round"/><path d="M376.6 143.5 A152 152 0 0 1 385.1 155.7" stroke="#33ebca" stroke-width="46" fill="none" stroke-linecap="round"/><path d="M382.4 151.6 A152 152 0 0 1 390.1 164.3" stroke="#33ebd6" stroke-width="46" fill="none" stroke-linecap="round"/><path d="M387.6 160.0 A152 152 0 0 1 394.5 173.3" stroke="#33ebe1" stroke-width="46" fill="none" stroke-linecap="round"/><path d="M392.3 168.8 A152 152 0 0 1 398.3 182.5" stroke="#33e9eb" stroke-width="46" fill="none" stroke-linecap="round"/><path d="M396.4 177.8 A152 152 0 0 1 401.5 191.9" stroke="#33ddeb" stroke-width="46" fill="none" stroke-linecap="round"/><path d="M399.9 187.1 A152 152 0 0 1 404.0 201.5" stroke="#33d2eb" stroke-width="46" fill="none" stroke-linecap="round"/><path d="M402.8 196.7 A152 152 0 0 1 406.0 211.2" stroke="#33c6eb" stroke-width="46" fill="none" stroke-linecap="round"/><path d="M405.1 206.3 A152 152 0 0 1 407.3 221.1" stroke="#33bbeb" stroke-width="46" fill="none" stroke-linecap="round"/><path d="M406.7 216.2 A152 152 0 0 1 407.9 231.0" stroke="#33afeb" stroke-width="46" fill="none" stroke-linecap="round"/><path d="M407.7 226.1 A152 152 0 0 1 407.9 241.0" stroke="#33a4eb" stroke-width="46" fill="none" stroke-linecap="round"/>
  <g transform="translate(252 262) rotate(-16) scale(0.9)">
    <path d="M-58 10 C -108 -4 -120 -44 -152 -38" fill="none" stroke="#96a2ac" stroke-width="9" stroke-linecap="round"/>
    <ellipse cx="-26" cy="30" rx="16" ry="9" fill="#8b97a2"/>
    <circle cx="44" cy="-44" r="20" fill="#8b97a2"/>
    <ellipse cx="0" cy="0" rx="60" ry="40" fill="url(#mBody)"/>
    <ellipse cx="8" cy="12" rx="42" ry="24" fill="#eef2f5" opacity=".75"/>
    <ellipse cx="30" cy="31" rx="15" ry="8" fill="#8b97a2"/>
    <circle cx="56" cy="-6" r="35" fill="url(#mBody)"/>
    <circle cx="71" cy="-40" r="23" fill="#aab4bd"/>
    <circle cx="71" cy="-40" r="12" fill="#ffb3c7"/>
    <circle cx="70" cy="-12" r="5.5" fill="#20242a"/>
    <circle cx="72" cy="-14" r="1.7" fill="#fff"/>
    <circle cx="90" cy="0" r="5.5" fill="#ff7aa2"/>
    <g stroke="#c2cbd3" stroke-width="2" stroke-linecap="round">
      <line x1="88" y1="2" x2="120" y2="-6"/><line x1="88" y1="4" x2="122" y2="6"/><line x1="88" y1="6" x2="120" y2="18"/>
    </g></g>
</svg>
