<svg xmlns="http://www.w3.org/2000/svg" viewBox="0 0 640 470" width="640" height="470" role="img" aria-label="Skittermouse mascot: a mouse skittering through a colorful ring">
  <defs>
    <linearGradient id="mBody" x1="0" y1="0" x2="0" y2="1"><stop offset="0" stop-color="#cfd8df"/><stop offset="1" stop-color="#96a2ac"/></linearGradient>
    <style>
      .spin { animation: hue 7s linear infinite; }
      @keyframes hue { to { filter: hue-rotate(360deg); } }
      .mouse { animation: hop 2.2s ease-in-out infinite; }
      @keyframes hop { 0%,100% { transform: translateY(0); } 50% { transform: translateY(-14px); } }
      @media (prefers-reduced-motion: reduce) { .spin, .mouse { animation: none !important; } }
    </style>
  </defs>
  <g class="spin"><path d="M476.0 226.0 A156 156 0 0 1 475.2 241.3" stroke="#eb3933" stroke-width="44" fill="none" stroke-linecap="round"/><path d="M475.7 236.2 A156 156 0 0 1 473.9 251.4" stroke="#eb4433" stroke-width="44" fill="none" stroke-linecap="round"/><path d="M474.7 246.4 A156 156 0 0 1 471.9 261.4" stroke="#eb5033" stroke-width="44" fill="none" stroke-linecap="round"/><path d="M473.0 256.4 A156 156 0 0 1 469.3 271.3" stroke="#eb5b33" stroke-width="44" fill="none" stroke-linecap="round"/><path d="M470.7 266.4 A156 156 0 0 1 466.0 281.0" stroke="#eb6733" stroke-width="44" fill="none" stroke-linecap="round"/><path d="M467.7 276.1 A156 156 0 0 1 462.1 290.4" stroke="#eb7233" stroke-width="44" fill="none" stroke-linecap="round"/><path d="M464.1 285.7 A156 156 0 0 1 457.6 299.5" stroke="#eb7e33" stroke-width="44" fill="none" stroke-linecap="round"/><path d="M459.9 295.0 A156 156 0 0 1 452.5 308.4" stroke="#eb8933" stroke-width="44" fill="none" stroke-linecap="round"/><path d="M455.1 304.0 A156 156 0 0 1 446.8 316.9" stroke="#eb9533" stroke-width="44" fill="none" stroke-linecap="round"/><path d="M449.7 312.7 A156 156 0 0 1 440.6 325.0" stroke="#eba033" stroke-width="44" fill="none" stroke-linecap="round"/><path d="M443.8 321.0 A156 156 0 0 1 433.9 332.6" stroke="#ebac33" stroke-width="44" fill="none" stroke-linecap="round"/><path d="M437.3 328.9 A156 156 0 0 1 426.6 339.9" stroke="#ebb733" stroke-width="44" fill="none" stroke-linecap="round"/><path d="M430.3 336.3 A156 156 0 0 1 419.0 346.6" stroke="#ebc333" stroke-width="44" fill="none" stroke-linecap="round"/><path d="M422.9 343.3 A156 156 0 0 1 410.9 352.8" stroke="#ebce33" stroke-width="44" fill="none" stroke-linecap="round"/><path d="M415.0 349.8 A156 156 0 0 1 402.4 358.5" stroke="#ebda33" stroke-width="44" fill="none" stroke-linecap="round"/><path d="M406.7 355.7 A156 156 0 0 1 393.5 363.6" stroke="#ebe533" stroke-width="44" fill="none" stroke-linecap="round"/><path d="M398.0 361.1 A156 156 0 0 1 384.4 368.1" stroke="#e5eb33" stroke-width="44" fill="none" stroke-linecap="round"/><path d="M389.0 365.9 A156 156 0 0 1 375.0 372.0" stroke="#daeb33" stroke-width="44" fill="none" stroke-linecap="round"/><path d="M379.7 370.1 A156 156 0 0 1 365.3 375.3" stroke="#ceeb33" stroke-width="44" fill="none" stroke-linecap="round"/><path d="M370.1 373.7 A156 156 0 0 1 355.4 377.9" stroke="#c3eb33" stroke-width="44" fill="none" stroke-linecap="round"/><path d="M360.4 376.7 A156 156 0 0 1 345.4 379.9" stroke="#b7eb33" stroke-width="44" fill="none" stroke-linecap="round"/><path d="M350.4 379.0 A156 156 0 0 1 335.3 381.2" stroke="#aceb33" stroke-width="44" fill="none" stroke-linecap="round"/><path d="M340.4 380.7 A156 156 0 0 1 325.1 381.9" stroke="#a0eb33" stroke-width="44" fill="none" stroke-linecap="round"/><path d="M330.2 381.7 A156 156 0 0 1 314.9 381.9" stroke="#95eb33" stroke-width="44" fill="none" stroke-linecap="round"/><path d="M320.0 382.0 A156 156 0 0 1 304.7 381.2" stroke="#89eb33" stroke-width="44" fill="none" stroke-linecap="round"/><path d="M309.8 381.7 A156 156 0 0 1 294.6 379.9" stroke="#7eeb33" stroke-width="44" fill="none" stroke-linecap="round"/><path d="M299.6 380.7 A156 156 0 0 1 284.6 377.9" stroke="#72eb33" stroke-width="44" fill="none" stroke-linecap="round"/><path d="M289.6 379.0 A156 156 0 0 1 274.7 375.3" stroke="#67eb33" stroke-width="44" fill="none" stroke-linecap="round"/><path d="M279.6 376.7 A156 156 0 0 1 265.0 372.0" stroke="#5beb33" stroke-width="44" fill="none" stroke-linecap="round"/><path d="M269.9 373.7 A156 156 0 0 1 255.6 368.1" stroke="#50eb33" stroke-width="44" fill="none" stroke-linecap="round"/><path d="M260.3 370.1 A156 156 0 0 1 246.5 363.6" stroke="#44eb33" stroke-width="44" fill="none" stroke-linecap="round"/><path d="M251.0 365.9 A156 156 0 0 1 237.6 358.5" stroke="#39eb33" stroke-width="44" fill="none" stroke-linecap="round"/><path d="M242.0 361.1 A156 156 0 0 1 229.1 352.8" stroke="#33eb39" stroke-width="44" fill="none" stroke-linecap="round"/><path d="M233.3 355.7 A156 156 0 0 1 221.0 346.6" stroke="#33eb44" stroke-width="44" fill="none" stroke-linecap="round"/><path d="M225.0 349.8 A156 156 0 0 1 213.4 339.9" stroke="#33eb50" stroke-width="44" fill="none" stroke-linecap="round"/><path d="M217.1 343.3 A156 156 0 0 1 206.1 332.6" stroke="#33eb5b" stroke-width="44" fill="none" stroke-linecap="round"/><path d="M209.7 336.3 A156 156 0 0 1 199.4 325.0" stroke="#33eb67" stroke-width="44" fill="none" stroke-linecap="round"/><path d="M202.7 328.9 A156 156 0 0 1 193.2 316.9" stroke="#33eb72" stroke-width="44" fill="none" stroke-linecap="round"/><path d="M196.2 321.0 A156 156 0 0 1 187.5 308.4" stroke="#33eb7e" stroke-width="44" fill="none" stroke-linecap="round"/><path d="M190.3 312.7 A156 156 0 0 1 182.4 299.5" stroke="#33eb89" stroke-width="44" fill="none" stroke-linecap="round"/><path d="M184.9 304.0 A156 156 0 0 1 177.9 290.4" stroke="#33eb95" stroke-width="44" fill="none" stroke-linecap="round"/><path d="M180.1 295.0 A156 156 0 0 1 174.0 281.0" stroke="#33eba0" stroke-width="44" fill="none" stroke-linecap="round"/><path d="M175.9 285.7 A156 156 0 0 1 170.7 271.3" stroke="#33ebac" stroke-width="44" fill="none" stroke-linecap="round"/><path d="M172.3 276.1 A156 156 0 0 1 168.1 261.4" stroke="#33ebb7" stroke-width="44" fill="none" stroke-linecap="round"/><path d="M169.3 266.4 A156 156 0 0 1 166.1 251.4" stroke="#33ebc3" stroke-width="44" fill="none" stroke-linecap="round"/><path d="M167.0 256.4 A156 156 0 0 1 164.8 241.3" stroke="#33ebce" stroke-width="44" fill="none" stroke-linecap="round"/><path d="M165.3 246.4 A156 156 0 0 1 164.1 231.1" stroke="#33ebda" stroke-width="44" fill="none" stroke-linecap="round"/><path d="M164.3 236.2 A156 156 0 0 1 164.1 220.9" stroke="#33ebe5" stroke-width="44" fill="none" stroke-linecap="round"/><path d="M164.0 226.0 A156 156 0 0 1 164.8 210.7" stroke="#33e5eb" stroke-width="44" fill="none" stroke-linecap="round"/><path d="M164.3 215.8 A156 156 0 0 1 166.1 200.6" stroke="#33daeb" stroke-width="44" fill="none" stroke-linecap="round"/><path d="M165.3 205.6 A156 156 0 0 1 168.1 190.6" stroke="#33ceeb" stroke-width="44" fill="none" stroke-linecap="round"/><path d="M167.0 195.6 A156 156 0 0 1 170.7 180.7" stroke="#33c3eb" stroke-width="44" fill="none" stroke-linecap="round"/><path d="M169.3 185.6 A156 156 0 0 1 174.0 171.0" stroke="#33b7eb" stroke-width="44" fill="none" stroke-linecap="round"/><path d="M172.3 175.9 A156 156 0 0 1 177.9 161.6" stroke="#33aceb" stroke-width="44" fill="none" stroke-linecap="round"/><path d="M175.9 166.3 A156 156 0 0 1 182.4 152.5" stroke="#33a0eb" stroke-width="44" fill="none" stroke-linecap="round"/><path d="M180.1 157.0 A156 156 0 0 1 187.5 143.6" stroke="#3395eb" stroke-width="44" fill="none" stroke-linecap="round"/><path d="M184.9 148.0 A156 156 0 0 1 193.2 135.1" stroke="#3389eb" stroke-width="44" fill="none" stroke-linecap="round"/><path d="M190.3 139.3 A156 156 0 0 1 199.4 127.0" stroke="#337eeb" stroke-width="44" fill="none" stroke-linecap="round"/><path d="M196.2 131.0 A156 156 0 0 1 206.1 119.4" stroke="#3372eb" stroke-width="44" fill="none" stroke-linecap="round"/><path d="M202.7 123.1 A156 156 0 0 1 213.4 112.1" stroke="#3367eb" stroke-width="44" fill="none" stroke-linecap="round"/><path d="M209.7 115.7 A156 156 0 0 1 221.0 105.4" stroke="#335beb" stroke-width="44" fill="none" stroke-linecap="round"/><path d="M217.1 108.7 A156 156 0 0 1 229.1 99.2" stroke="#3350eb" stroke-width="44" fill="none" stroke-linecap="round"/><path d="M225.0 102.2 A156 156 0 0 1 237.6 93.5" stroke="#3344eb" stroke-width="44" fill="none" stroke-linecap="round"/><path d="M233.3 96.3 A156 156 0 0 1 246.5 88.4" stroke="#3339eb" stroke-width="44" fill="none" stroke-linecap="round"/><path d="M242.0 90.9 A156 156 0 0 1 255.6 83.9" stroke="#3933eb" stroke-width="44" fill="none" stroke-linecap="round"/><path d="M251.0 86.1 A156 156 0 0 1 265.0 80.0" stroke="#4433eb" stroke-width="44" fill="none" stroke-linecap="round"/><path d="M260.3 81.9 A156 156 0 0 1 274.7 76.7" stroke="#5033eb" stroke-width="44" fill="none" stroke-linecap="round"/><path d="M269.9 78.3 A156 156 0 0 1 284.6 74.1" stroke="#5b33eb" stroke-width="44" fill="none" stroke-linecap="round"/><path d="M279.6 75.3 A156 156 0 0 1 294.6 72.1" stroke="#6733eb" stroke-width="44" fill="none" stroke-linecap="round"/><path d="M289.6 73.0 A156 156 0 0 1 304.7 70.8" stroke="#7233eb" stroke-width="44" fill="none" stroke-linecap="round"/><path d="M299.6 71.3 A156 156 0 0 1 314.9 70.1" stroke="#7e33eb" stroke-width="44" fill="none" stroke-linecap="round"/><path d="M309.8 70.3 A156 156 0 0 1 325.1 70.1" stroke="#8933eb" stroke-width="44" fill="none" stroke-linecap="round"/><path d="M320.0 70.0 A156 156 0 0 1 335.3 70.8" stroke="#9533eb" stroke-width="44" fill="none" stroke-linecap="round"/><path d="M330.2 70.3 A156 156 0 0 1 345.4 72.1" stroke="#a033eb" stroke-width="44" fill="none" stroke-linecap="round"/><path d="M340.4 71.3 A156 156 0 0 1 355.4 74.1" stroke="#ac33eb" stroke-width="44" fill="none" stroke-linecap="round"/><path d="M350.4 73.0 A156 156 0 0 1 365.3 76.7" stroke="#b733eb" stroke-width="44" fill="none" stroke-linecap="round"/><path d="M360.4 75.3 A156 156 0 0 1 375.0 80.0" stroke="#c333eb" stroke-width="44" fill="none" stroke-linecap="round"/><path d="M370.1 78.3 A156 156 0 0 1 384.4 83.9" stroke="#ce33eb" stroke-width="44" fill="none" stroke-linecap="round"/><path d="M379.7 81.9 A156 156 0 0 1 393.5 88.4" stroke="#da33eb" stroke-width="44" fill="none" stroke-linecap="round"/><path d="M389.0 86.1 A156 156 0 0 1 402.4 93.5" stroke="#e533eb" stroke-width="44" fill="none" stroke-linecap="round"/><path d="M398.0 90.9 A156 156 0 0 1 410.9 99.2" stroke="#eb33e5" stroke-width="44" fill="none" stroke-linecap="round"/><path d="M406.7 96.3 A156 156 0 0 1 419.0 105.4" stroke="#eb33da" stroke-width="44" fill="none" stroke-linecap="round"/><path d="M415.0 102.2 A156 156 0 0 1 426.6 112.1" stroke="#eb33ce" stroke-width="44" fill="none" stroke-linecap="round"/><path d="M422.9 108.7 A156 156 0 0 1 433.9 119.4" stroke="#eb33c3" stroke-width="44" fill="none" stroke-linecap="round"/><path d="M430.3 115.7 A156 156 0 0 1 440.6 127.0" stroke="#eb33b7" stroke-width="44" fill="none" stroke-linecap="round"/><path d="M437.3 123.1 A156 156 0 0 1 446.8 135.1" stroke="#eb33ac" stroke-width="44" fill="none" stroke-linecap="round"/><path d="M443.8 131.0 A156 156 0 0 1 452.5 143.6" stroke="#eb33a0" stroke-width="44" fill="none" stroke-linecap="round"/><path d="M449.7 139.3 A156 156 0 0 1 457.6 152.5" stroke="#eb3395" stroke-width="44" fill="none" stroke-linecap="round"/><path d="M455.1 148.0 A156 156 0 0 1 462.1 161.6" stroke="#eb3389" stroke-width="44" fill="none" stroke-linecap="round"/><path d="M459.9 157.0 A156 156 0 0 1 466.0 171.0" stroke="#eb337e" stroke-width="44" fill="none" stroke-linecap="round"/><path d="M464.1 166.3 A156 156 0 0 1 469.3 180.7" stroke="#eb3372" stroke-width="44" fill="none" stroke-linecap="round"/><path d="M467.7 175.9 A156 156 0 0 1 471.9 190.6" stroke="#eb3367" stroke-width="44" fill="none" stroke-linecap="round"/><path d="M470.7 185.6 A156 156 0 0 1 473.9 200.6" stroke="#eb335b" stroke-width="44" fill="none" stroke-linecap="round"/><path d="M473.0 195.6 A156 156 0 0 1 475.2 210.7" stroke="#eb3350" stroke-width="44" fill="none" stroke-linecap="round"/><path d="M474.7 205.6 A156 156 0 0 1 475.9 220.9" stroke="#eb3344" stroke-width="44" fill="none" stroke-linecap="round"/><path d="M475.7 215.8 A156 156 0 0 1 475.9 231.1" stroke="#eb3339" stroke-width="44" fill="none" stroke-linecap="round"/></g>
  <g transform="translate(316 258) rotate(-16)"><g class="mouse">
    <path d="M-58 10 C -108 -4 -120 -44 -152 -38" fill="none" stroke="#96a2ac" stroke-width="9" stroke-linecap="round"/>
    <ellipse cx="-26" cy="30" rx="16" ry="9" fill="#8b97a2"/>
    <circle cx="44" cy="-44" r="20" fill="#8b97a2"/>
    <ellipse cx="0" cy="0" rx="60" ry="40" fill="url(#mBody)"/>
    <ellipse cx="8" cy="12" rx="42" ry="24" fill="#eef2f5" opacity=".75"/>
    <ellipse cx="30" cy="31" rx="15" ry="8" fill="#8b97a2"/>
    <circle cx="56" cy="-6" r="35" fill="url(#mBody)"/>
    <circle cx="71" cy="-40" r="23" fill="#aab4bd"/>
    <circle cx="71" cy="-40" r="12" fill="#ffb3c7"/>
    <circle cx="70" cy="-12" r="5.5" fill="#20242a"/>
    <circle cx="72" cy="-14" r="1.7" fill="#fff"/>
    <circle cx="90" cy="0" r="5.5" fill="#ff7aa2"/>
    <g stroke="#c2cbd3" stroke-width="2" stroke-linecap="round">
      <line x1="88" y1="2" x2="120" y2="-6"/><line x1="88" y1="4" x2="122" y2="6"/><line x1="88" y1="6" x2="120" y2="18"/>
    </g></g></g>
</svg>
