<svg xmlns="http://www.w3.org/2000/svg" viewBox="0 0 640 470" width="640" height="470" role="img" aria-label="QQMouse mascot: a mouse leaping through two flaming QQ hoops">
  <defs>
    <linearGradient id="fire" x1="0" y1="0" x2="0" y2="1">
      <stop offset="0" stop-color="#fff1a6"/><stop offset=".4" stop-color="#ff9d00"/><stop offset="1" stop-color="#ff2d00"/>
    </linearGradient>
    <radialGradient id="glow" cx="0.5" cy="0.5" r="0.5">
      <stop offset="0" stop-color="#ff7a00" stop-opacity=".38"/><stop offset="1" stop-color="#ff7a00" stop-opacity="0"/>
    </radialGradient>
    <linearGradient id="mBody" x1="0" y1="0" x2="0" y2="1">
      <stop offset="0" stop-color="#cfd8df"/><stop offset="1" stop-color="#96a2ac"/>
    </linearGradient>
    <path id="flame" d="M0 0 C -15 -20 -11 -44 0 -70 C 11 -44 15 -20 0 0 Z" fill="url(#fire)"/>
    <style>
      .spin { animation: hue 7s linear infinite; }
      @keyframes hue { to { filter: hue-rotate(360deg); } }
      .flames > * { animation: flick .9s ease-in-out infinite alternate; }
      .flames > *:nth-child(2n) { animation-duration: 1.15s; }
      .flames > *:nth-child(3n) { animation-duration: .72s; }
      @keyframes flick { from { opacity: .5; } to { opacity: 1; } }
      .mouse { animation: hop 2.2s ease-in-out infinite; }
      @keyframes hop { 0%,100% { transform: translateY(0); } 50% { transform: translateY(-14px); } }
      @media (prefers-reduced-motion: reduce) { .spin, .flames > *, .mouse { animation: none !important; } }
    </style>
  </defs>

  <ellipse cx="232" cy="232" rx="204" ry="192" fill="url(#glow)"/>
  <ellipse cx="408" cy="232" rx="204" ry="192" fill="url(#glow)"/>

  <g class="flames" transform="translate(232 232)"><use href="#flame" transform="rotate(0) translate(0 -128) scale(1.15)"/><use href="#flame" transform="rotate(40) translate(0 -128) scale(0.9)"/><use href="#flame" transform="rotate(80) translate(0 -128) scale(1.05)"/><use href="#flame" transform="rotate(120) translate(0 -128) scale(0.85)"/><use href="#flame" transform="rotate(160) translate(0 -128) scale(1.1)"/><use href="#flame" transform="rotate(200) translate(0 -128) scale(0.9)"/><use href="#flame" transform="rotate(240) translate(0 -128) scale(1.05)"/><use href="#flame" transform="rotate(280) translate(0 -128) scale(0.8)"/><use href="#flame" transform="rotate(320) translate(0 -128) scale(1.1)"/></g>
  <g class="flames" transform="translate(408 232)"><use href="#flame" transform="rotate(0) translate(0 -128) scale(1.15)"/><use href="#flame" transform="rotate(40) translate(0 -128) scale(0.9)"/><use href="#flame" transform="rotate(80) translate(0 -128) scale(1.05)"/><use href="#flame" transform="rotate(120) translate(0 -128) scale(0.85)"/><use href="#flame" transform="rotate(160) translate(0 -128) scale(1.1)"/><use href="#flame" transform="rotate(200) translate(0 -128) scale(0.9)"/><use href="#flame" transform="rotate(240) translate(0 -128) scale(1.05)"/><use href="#flame" transform="rotate(280) translate(0 -128) scale(0.8)"/><use href="#flame" transform="rotate(320) translate(0 -128) scale(1.1)"/></g>

  <g class="spin">
    <g><path d="M352.0 232.0 A120 120 0 0 1 351.2 245.4" stroke="#eb3933" stroke-width="40" fill="none" stroke-linecap="round"/><path d="M351.7 241.0 A120 120 0 0 1 349.9 254.3" stroke="#eb4733" stroke-width="40" fill="none" stroke-linecap="round"/><path d="M350.7 249.9 A120 120 0 0 1 347.9 263.1" stroke="#eb5433" stroke-width="40" fill="none" stroke-linecap="round"/><path d="M349.0 258.7 A120 120 0 0 1 345.3 271.6" stroke="#eb6133" stroke-width="40" fill="none" stroke-linecap="round"/><path d="M346.7 267.4 A120 120 0 0 1 342.0 280.0" stroke="#eb6e33" stroke-width="40" fill="none" stroke-linecap="round"/><path d="M343.7 275.8 A120 120 0 0 1 338.1 288.1" stroke="#eb7b33" stroke-width="40" fill="none" stroke-linecap="round"/><path d="M340.1 284.1 A120 120 0 0 1 333.6 295.8" stroke="#eb8833" stroke-width="40" fill="none" stroke-linecap="round"/><path d="M335.9 292.0 A120 120 0 0 1 328.6 303.3" stroke="#eb9533" stroke-width="40" fill="none" stroke-linecap="round"/><path d="M331.1 299.6 A120 120 0 0 1 323.0 310.3" stroke="#eba333" stroke-width="40" fill="none" stroke-linecap="round"/><path d="M325.8 306.8 A120 120 0 0 1 316.9 316.9" stroke="#ebb033" stroke-width="40" fill="none" stroke-linecap="round"/><path d="M320.0 313.6 A120 120 0 0 1 310.3 323.0" stroke="#ebbd33" stroke-width="40" fill="none" stroke-linecap="round"/><path d="M313.6 320.0 A120 120 0 0 1 303.3 328.6" stroke="#ebca33" stroke-width="40" fill="none" stroke-linecap="round"/><path d="M306.8 325.8 A120 120 0 0 1 295.8 333.6" stroke="#ebd733" stroke-width="40" fill="none" stroke-linecap="round"/><path d="M299.6 331.1 A120 120 0 0 1 288.1 338.1" stroke="#ebe433" stroke-width="40" fill="none" stroke-linecap="round"/><path d="M292.0 335.9 A120 120 0 0 1 280.0 342.0" stroke="#e4eb33" stroke-width="40" fill="none" stroke-linecap="round"/><path d="M284.1 340.1 A120 120 0 0 1 271.6 345.3" stroke="#d7eb33" stroke-width="40" fill="none" stroke-linecap="round"/><path d="M275.8 343.7 A120 120 0 0 1 263.1 347.9" stroke="#caeb33" stroke-width="40" fill="none" stroke-linecap="round"/><path d="M267.4 346.7 A120 120 0 0 1 254.3 349.9" stroke="#bdeb33" stroke-width="40" fill="none" stroke-linecap="round"/><path d="M258.7 349.0 A120 120 0 0 1 245.4 351.2" stroke="#b0eb33" stroke-width="40" fill="none" stroke-linecap="round"/><path d="M249.9 350.7 A120 120 0 0 1 236.5 351.9" stroke="#a3eb33" stroke-width="40" fill="none" stroke-linecap="round"/><path d="M241.0 351.7 A120 120 0 0 1 227.5 351.9" stroke="#95eb33" stroke-width="40" fill="none" stroke-linecap="round"/><path d="M232.0 352.0 A120 120 0 0 1 218.6 351.2" stroke="#88eb33" stroke-width="40" fill="none" stroke-linecap="round"/><path d="M223.0 351.7 A120 120 0 0 1 209.7 349.9" stroke="#7beb33" stroke-width="40" fill="none" stroke-linecap="round"/><path d="M214.1 350.7 A120 120 0 0 1 200.9 347.9" stroke="#6eeb33" stroke-width="40" fill="none" stroke-linecap="round"/><path d="M205.3 349.0 A120 120 0 0 1 192.4 345.3" stroke="#61eb33" stroke-width="40" fill="none" stroke-linecap="round"/><path d="M196.6 346.7 A120 120 0 0 1 184.0 342.0" stroke="#54eb33" stroke-width="40" fill="none" stroke-linecap="round"/><path d="M188.2 343.7 A120 120 0 0 1 175.9 338.1" stroke="#47eb33" stroke-width="40" fill="none" stroke-linecap="round"/><path d="M179.9 340.1 A120 120 0 0 1 168.2 333.6" stroke="#39eb33" stroke-width="40" fill="none" stroke-linecap="round"/><path d="M172.0 335.9 A120 120 0 0 1 160.7 328.6" stroke="#33eb39" stroke-width="40" fill="none" stroke-linecap="round"/><path d="M164.4 331.1 A120 120 0 0 1 153.7 323.0" stroke="#33eb47" stroke-width="40" fill="none" stroke-linecap="round"/><path d="M157.2 325.8 A120 120 0 0 1 147.1 316.9" stroke="#33eb54" stroke-width="40" fill="none" stroke-linecap="round"/><path d="M150.4 320.0 A120 120 0 0 1 141.0 310.3" stroke="#33eb61" stroke-width="40" fill="none" stroke-linecap="round"/><path d="M144.0 313.6 A120 120 0 0 1 135.4 303.3" stroke="#33eb6e" stroke-width="40" fill="none" stroke-linecap="round"/><path d="M138.2 306.8 A120 120 0 0 1 130.4 295.8" stroke="#33eb7b" stroke-width="40" fill="none" stroke-linecap="round"/><path d="M132.9 299.6 A120 120 0 0 1 125.9 288.1" stroke="#33eb88" stroke-width="40" fill="none" stroke-linecap="round"/><path d="M128.1 292.0 A120 120 0 0 1 122.0 280.0" stroke="#33eb95" stroke-width="40" fill="none" stroke-linecap="round"/><path d="M123.9 284.1 A120 120 0 0 1 118.7 271.6" stroke="#33eba3" stroke-width="40" fill="none" stroke-linecap="round"/><path d="M120.3 275.8 A120 120 0 0 1 116.1 263.1" stroke="#33ebb0" stroke-width="40" fill="none" stroke-linecap="round"/><path d="M117.3 267.4 A120 120 0 0 1 114.1 254.3" stroke="#33ebbd" stroke-width="40" fill="none" stroke-linecap="round"/><path d="M115.0 258.7 A120 120 0 0 1 112.8 245.4" stroke="#33ebca" stroke-width="40" fill="none" stroke-linecap="round"/><path d="M113.3 249.9 A120 120 0 0 1 112.1 236.5" stroke="#33ebd7" stroke-width="40" fill="none" stroke-linecap="round"/><path d="M112.3 241.0 A120 120 0 0 1 112.1 227.5" stroke="#33ebe4" stroke-width="40" fill="none" stroke-linecap="round"/><path d="M112.0 232.0 A120 120 0 0 1 112.8 218.6" stroke="#33e4eb" stroke-width="40" fill="none" stroke-linecap="round"/><path d="M112.3 223.0 A120 120 0 0 1 114.1 209.7" stroke="#33d7eb" stroke-width="40" fill="none" stroke-linecap="round"/><path d="M113.3 214.1 A120 120 0 0 1 116.1 200.9" stroke="#33caeb" stroke-width="40" fill="none" stroke-linecap="round"/><path d="M115.0 205.3 A120 120 0 0 1 118.7 192.4" stroke="#33bdeb" stroke-width="40" fill="none" stroke-linecap="round"/><path d="M117.3 196.6 A120 120 0 0 1 122.0 184.0" stroke="#33b0eb" stroke-width="40" fill="none" stroke-linecap="round"/><path d="M120.3 188.2 A120 120 0 0 1 125.9 175.9" stroke="#33a3eb" stroke-width="40" fill="none" stroke-linecap="round"/><path d="M123.9 179.9 A120 120 0 0 1 130.4 168.2" stroke="#3395eb" stroke-width="40" fill="none" stroke-linecap="round"/><path d="M128.1 172.0 A120 120 0 0 1 135.4 160.7" stroke="#3388eb" stroke-width="40" fill="none" stroke-linecap="round"/><path d="M132.9 164.4 A120 120 0 0 1 141.0 153.7" stroke="#337beb" stroke-width="40" fill="none" stroke-linecap="round"/><path d="M138.2 157.2 A120 120 0 0 1 147.1 147.1" stroke="#336eeb" stroke-width="40" fill="none" stroke-linecap="round"/><path d="M144.0 150.4 A120 120 0 0 1 153.7 141.0" stroke="#3361eb" stroke-width="40" fill="none" stroke-linecap="round"/><path d="M150.4 144.0 A120 120 0 0 1 160.7 135.4" stroke="#3354eb" stroke-width="40" fill="none" stroke-linecap="round"/><path d="M157.2 138.2 A120 120 0 0 1 168.2 130.4" stroke="#3347eb" stroke-width="40" fill="none" stroke-linecap="round"/><path d="M164.4 132.9 A120 120 0 0 1 175.9 125.9" stroke="#3339eb" stroke-width="40" fill="none" stroke-linecap="round"/><path d="M172.0 128.1 A120 120 0 0 1 184.0 122.0" stroke="#3933eb" stroke-width="40" fill="none" stroke-linecap="round"/><path d="M179.9 123.9 A120 120 0 0 1 192.4 118.7" stroke="#4733eb" stroke-width="40" fill="none" stroke-linecap="round"/><path d="M188.2 120.3 A120 120 0 0 1 200.9 116.1" stroke="#5433eb" stroke-width="40" fill="none" stroke-linecap="round"/><path d="M196.6 117.3 A120 120 0 0 1 209.7 114.1" stroke="#6133eb" stroke-width="40" fill="none" stroke-linecap="round"/><path d="M205.3 115.0 A120 120 0 0 1 218.6 112.8" stroke="#6e33eb" stroke-width="40" fill="none" stroke-linecap="round"/><path d="M214.1 113.3 A120 120 0 0 1 227.5 112.1" stroke="#7b33eb" stroke-width="40" fill="none" stroke-linecap="round"/><path d="M223.0 112.3 A120 120 0 0 1 236.5 112.1" stroke="#8833eb" stroke-width="40" fill="none" stroke-linecap="round"/><path d="M232.0 112.0 A120 120 0 0 1 245.4 112.8" stroke="#9533eb" stroke-width="40" fill="none" stroke-linecap="round"/><path d="M241.0 112.3 A120 120 0 0 1 254.3 114.1" stroke="#a333eb" stroke-width="40" fill="none" stroke-linecap="round"/><path d="M249.9 113.3 A120 120 0 0 1 263.1 116.1" stroke="#b033eb" stroke-width="40" fill="none" stroke-linecap="round"/><path d="M258.7 115.0 A120 120 0 0 1 271.6 118.7" stroke="#bd33eb" stroke-width="40" fill="none" stroke-linecap="round"/><path d="M267.4 117.3 A120 120 0 0 1 280.0 122.0" stroke="#ca33eb" stroke-width="40" fill="none" stroke-linecap="round"/><path d="M275.8 120.3 A120 120 0 0 1 288.1 125.9" stroke="#d733eb" stroke-width="40" fill="none" stroke-linecap="round"/><path d="M284.1 123.9 A120 120 0 0 1 295.8 130.4" stroke="#e433eb" stroke-width="40" fill="none" stroke-linecap="round"/><path d="M292.0 128.1 A120 120 0 0 1 303.3 135.4" stroke="#eb33e4" stroke-width="40" fill="none" stroke-linecap="round"/><path d="M299.6 132.9 A120 120 0 0 1 310.3 141.0" stroke="#eb33d7" stroke-width="40" fill="none" stroke-linecap="round"/><path d="M306.8 138.2 A120 120 0 0 1 316.9 147.1" stroke="#eb33ca" stroke-width="40" fill="none" stroke-linecap="round"/><path d="M313.6 144.0 A120 120 0 0 1 323.0 153.7" stroke="#eb33bd" stroke-width="40" fill="none" stroke-linecap="round"/><path d="M320.0 150.4 A120 120 0 0 1 328.6 160.7" stroke="#eb33b0" stroke-width="40" fill="none" stroke-linecap="round"/><path d="M325.8 157.2 A120 120 0 0 1 333.6 168.2" stroke="#eb33a3" stroke-width="40" fill="none" stroke-linecap="round"/><path d="M331.1 164.4 A120 120 0 0 1 338.1 175.9" stroke="#eb3395" stroke-width="40" fill="none" stroke-linecap="round"/><path d="M335.9 172.0 A120 120 0 0 1 342.0 184.0" stroke="#eb3388" stroke-width="40" fill="none" stroke-linecap="round"/><path d="M340.1 179.9 A120 120 0 0 1 345.3 192.4" stroke="#eb337b" stroke-width="40" fill="none" stroke-linecap="round"/><path d="M343.7 188.2 A120 120 0 0 1 347.9 200.9" stroke="#eb336e" stroke-width="40" fill="none" stroke-linecap="round"/><path d="M346.7 196.6 A120 120 0 0 1 349.9 209.7" stroke="#eb3361" stroke-width="40" fill="none" stroke-linecap="round"/><path d="M349.0 205.3 A120 120 0 0 1 351.2 218.6" stroke="#eb3354" stroke-width="40" fill="none" stroke-linecap="round"/><path d="M350.7 214.1 A120 120 0 0 1 351.9 227.5" stroke="#eb3347" stroke-width="40" fill="none" stroke-linecap="round"/><path d="M351.7 223.0 A120 120 0 0 1 351.9 236.5" stroke="#eb3339" stroke-width="40" fill="none" stroke-linecap="round"/><path d="M295.7 326.5 L359.2 338.7" stroke="#ebc033" stroke-width="40" fill="none" stroke-linecap="round"/></g>
    <g><path d="M528.0 232.0 A120 120 0 0 1 527.2 245.4" stroke="#33eb95" stroke-width="40" fill="none" stroke-linecap="round"/><path d="M527.7 241.0 A120 120 0 0 1 525.9 254.3" stroke="#33eba3" stroke-width="40" fill="none" stroke-linecap="round"/><path d="M526.7 249.9 A120 120 0 0 1 523.9 263.1" stroke="#33ebb0" stroke-width="40" fill="none" stroke-linecap="round"/><path d="M525.0 258.7 A120 120 0 0 1 521.3 271.6" stroke="#33ebbd" stroke-width="40" fill="none" stroke-linecap="round"/><path d="M522.7 267.4 A120 120 0 0 1 518.0 280.0" stroke="#33ebca" stroke-width="40" fill="none" stroke-linecap="round"/><path d="M519.7 275.8 A120 120 0 0 1 514.1 288.1" stroke="#33ebd7" stroke-width="40" fill="none" stroke-linecap="round"/><path d="M516.1 284.1 A120 120 0 0 1 509.6 295.8" stroke="#33ebe4" stroke-width="40" fill="none" stroke-linecap="round"/><path d="M511.9 292.0 A120 120 0 0 1 504.6 303.3" stroke="#33e4eb" stroke-width="40" fill="none" stroke-linecap="round"/><path d="M507.1 299.6 A120 120 0 0 1 499.0 310.3" stroke="#33d7eb" stroke-width="40" fill="none" stroke-linecap="round"/><path d="M501.8 306.8 A120 120 0 0 1 492.9 316.9" stroke="#33caeb" stroke-width="40" fill="none" stroke-linecap="round"/><path d="M496.0 313.6 A120 120 0 0 1 486.3 323.0" stroke="#33bdeb" stroke-width="40" fill="none" stroke-linecap="round"/><path d="M489.6 320.0 A120 120 0 0 1 479.3 328.6" stroke="#33b0eb" stroke-width="40" fill="none" stroke-linecap="round"/><path d="M482.8 325.8 A120 120 0 0 1 471.8 333.6" stroke="#33a3eb" stroke-width="40" fill="none" stroke-linecap="round"/><path d="M475.6 331.1 A120 120 0 0 1 464.1 338.1" stroke="#3395eb" stroke-width="40" fill="none" stroke-linecap="round"/><path d="M468.0 335.9 A120 120 0 0 1 456.0 342.0" stroke="#3388eb" stroke-width="40" fill="none" stroke-linecap="round"/><path d="M460.1 340.1 A120 120 0 0 1 447.6 345.3" stroke="#337beb" stroke-width="40" fill="none" stroke-linecap="round"/><path d="M451.8 343.7 A120 120 0 0 1 439.1 347.9" stroke="#336eeb" stroke-width="40" fill="none" stroke-linecap="round"/><path d="M443.4 346.7 A120 120 0 0 1 430.3 349.9" stroke="#3361eb" stroke-width="40" fill="none" stroke-linecap="round"/><path d="M434.7 349.0 A120 120 0 0 1 421.4 351.2" stroke="#3354eb" stroke-width="40" fill="none" stroke-linecap="round"/><path d="M425.9 350.7 A120 120 0 0 1 412.5 351.9" stroke="#3347eb" stroke-width="40" fill="none" stroke-linecap="round"/><path d="M417.0 351.7 A120 120 0 0 1 403.5 351.9" stroke="#3339eb" stroke-width="40" fill="none" stroke-linecap="round"/><path d="M408.0 352.0 A120 120 0 0 1 394.6 351.2" stroke="#3933eb" stroke-width="40" fill="none" stroke-linecap="round"/><path d="M399.0 351.7 A120 120 0 0 1 385.7 349.9" stroke="#4733eb" stroke-width="40" fill="none" stroke-linecap="round"/><path d="M390.1 350.7 A120 120 0 0 1 376.9 347.9" stroke="#5433eb" stroke-width="40" fill="none" stroke-linecap="round"/><path d="M381.3 349.0 A120 120 0 0 1 368.4 345.3" stroke="#6133eb" stroke-width="40" fill="none" stroke-linecap="round"/><path d="M372.6 346.7 A120 120 0 0 1 360.0 342.0" stroke="#6e33eb" stroke-width="40" fill="none" stroke-linecap="round"/><path d="M364.2 343.7 A120 120 0 0 1 351.9 338.1" stroke="#7b33eb" stroke-width="40" fill="none" stroke-linecap="round"/><path d="M355.9 340.1 A120 120 0 0 1 344.2 333.6" stroke="#8833eb" stroke-width="40" fill="none" stroke-linecap="round"/><path d="M348.0 335.9 A120 120 0 0 1 336.7 328.6" stroke="#9533eb" stroke-width="40" fill="none" stroke-linecap="round"/><path d="M340.4 331.1 A120 120 0 0 1 329.7 323.0" stroke="#a333eb" stroke-width="40" fill="none" stroke-linecap="round"/><path d="M333.2 325.8 A120 120 0 0 1 323.1 316.9" stroke="#b033eb" stroke-width="40" fill="none" stroke-linecap="round"/><path d="M326.4 320.0 A120 120 0 0 1 317.0 310.3" stroke="#bd33eb" stroke-width="40" fill="none" stroke-linecap="round"/><path d="M320.0 313.6 A120 120 0 0 1 311.4 303.3" stroke="#ca33eb" stroke-width="40" fill="none" stroke-linecap="round"/><path d="M314.2 306.8 A120 120 0 0 1 306.4 295.8" stroke="#d733eb" stroke-width="40" fill="none" stroke-linecap="round"/><path d="M308.9 299.6 A120 120 0 0 1 301.9 288.1" stroke="#e433eb" stroke-width="40" fill="none" stroke-linecap="round"/><path d="M304.1 292.0 A120 120 0 0 1 298.0 280.0" stroke="#eb33e4" stroke-width="40" fill="none" stroke-linecap="round"/><path d="M299.9 284.1 A120 120 0 0 1 294.7 271.6" stroke="#eb33d7" stroke-width="40" fill="none" stroke-linecap="round"/><path d="M296.3 275.8 A120 120 0 0 1 292.1 263.1" stroke="#eb33ca" stroke-width="40" fill="none" stroke-linecap="round"/><path d="M293.3 267.4 A120 120 0 0 1 290.1 254.3" stroke="#eb33bd" stroke-width="40" fill="none" stroke-linecap="round"/><path d="M291.0 258.7 A120 120 0 0 1 288.8 245.4" stroke="#eb33b0" stroke-width="40" fill="none" stroke-linecap="round"/><path d="M289.3 249.9 A120 120 0 0 1 288.1 236.5" stroke="#eb33a3" stroke-width="40" fill="none" stroke-linecap="round"/><path d="M288.3 241.0 A120 120 0 0 1 288.1 227.5" stroke="#eb3395" stroke-width="40" fill="none" stroke-linecap="round"/><path d="M288.0 232.0 A120 120 0 0 1 288.8 218.6" stroke="#eb3388" stroke-width="40" fill="none" stroke-linecap="round"/><path d="M288.3 223.0 A120 120 0 0 1 290.1 209.7" stroke="#eb337b" stroke-width="40" fill="none" stroke-linecap="round"/><path d="M289.3 214.1 A120 120 0 0 1 292.1 200.9" stroke="#eb336e" stroke-width="40" fill="none" stroke-linecap="round"/><path d="M291.0 205.3 A120 120 0 0 1 294.7 192.4" stroke="#eb3361" stroke-width="40" fill="none" stroke-linecap="round"/><path d="M293.3 196.6 A120 120 0 0 1 298.0 184.0" stroke="#eb3354" stroke-width="40" fill="none" stroke-linecap="round"/><path d="M296.3 188.2 A120 120 0 0 1 301.9 175.9" stroke="#eb3347" stroke-width="40" fill="none" stroke-linecap="round"/><path d="M299.9 179.9 A120 120 0 0 1 306.4 168.2" stroke="#eb3339" stroke-width="40" fill="none" stroke-linecap="round"/><path d="M304.1 172.0 A120 120 0 0 1 311.4 160.7" stroke="#eb3933" stroke-width="40" fill="none" stroke-linecap="round"/><path d="M308.9 164.4 A120 120 0 0 1 317.0 153.7" stroke="#eb4733" stroke-width="40" fill="none" stroke-linecap="round"/><path d="M314.2 157.2 A120 120 0 0 1 323.1 147.1" stroke="#eb5433" stroke-width="40" fill="none" stroke-linecap="round"/><path d="M320.0 150.4 A120 120 0 0 1 329.7 141.0" stroke="#eb6133" stroke-width="40" fill="none" stroke-linecap="round"/><path d="M326.4 144.0 A120 120 0 0 1 336.7 135.4" stroke="#eb6e33" stroke-width="40" fill="none" stroke-linecap="round"/><path d="M333.2 138.2 A120 120 0 0 1 344.2 130.4" stroke="#eb7b33" stroke-width="40" fill="none" stroke-linecap="round"/><path d="M340.4 132.9 A120 120 0 0 1 351.9 125.9" stroke="#eb8833" stroke-width="40" fill="none" stroke-linecap="round"/><path d="M348.0 128.1 A120 120 0 0 1 360.0 122.0" stroke="#eb9533" stroke-width="40" fill="none" stroke-linecap="round"/><path d="M355.9 123.9 A120 120 0 0 1 368.4 118.7" stroke="#eba333" stroke-width="40" fill="none" stroke-linecap="round"/><path d="M364.2 120.3 A120 120 0 0 1 376.9 116.1" stroke="#ebb033" stroke-width="40" fill="none" stroke-linecap="round"/><path d="M372.6 117.3 A120 120 0 0 1 385.7 114.1" stroke="#ebbd33" stroke-width="40" fill="none" stroke-linecap="round"/><path d="M381.3 115.0 A120 120 0 0 1 394.6 112.8" stroke="#ebca33" stroke-width="40" fill="none" stroke-linecap="round"/><path d="M390.1 113.3 A120 120 0 0 1 403.5 112.1" stroke="#ebd733" stroke-width="40" fill="none" stroke-linecap="round"/><path d="M399.0 112.3 A120 120 0 0 1 412.5 112.1" stroke="#ebe433" stroke-width="40" fill="none" stroke-linecap="round"/><path d="M408.0 112.0 A120 120 0 0 1 421.4 112.8" stroke="#e4eb33" stroke-width="40" fill="none" stroke-linecap="round"/><path d="M417.0 112.3 A120 120 0 0 1 430.3 114.1" stroke="#d7eb33" stroke-width="40" fill="none" stroke-linecap="round"/><path d="M425.9 113.3 A120 120 0 0 1 439.1 116.1" stroke="#caeb33" stroke-width="40" fill="none" stroke-linecap="round"/><path d="M434.7 115.0 A120 120 0 0 1 447.6 118.7" stroke="#bdeb33" stroke-width="40" fill="none" stroke-linecap="round"/><path d="M443.4 117.3 A120 120 0 0 1 456.0 122.0" stroke="#b0eb33" stroke-width="40" fill="none" stroke-linecap="round"/><path d="M451.8 120.3 A120 120 0 0 1 464.1 125.9" stroke="#a3eb33" stroke-width="40" fill="none" stroke-linecap="round"/><path d="M460.1 123.9 A120 120 0 0 1 471.8 130.4" stroke="#95eb33" stroke-width="40" fill="none" stroke-linecap="round"/><path d="M468.0 128.1 A120 120 0 0 1 479.3 135.4" stroke="#88eb33" stroke-width="40" fill="none" stroke-linecap="round"/><path d="M475.6 132.9 A120 120 0 0 1 486.3 141.0" stroke="#7beb33" stroke-width="40" fill="none" stroke-linecap="round"/><path d="M482.8 138.2 A120 120 0 0 1 492.9 147.1" stroke="#6eeb33" stroke-width="40" fill="none" stroke-linecap="round"/><path d="M489.6 144.0 A120 120 0 0 1 499.0 153.7" stroke="#61eb33" stroke-width="40" fill="none" stroke-linecap="round"/><path d="M496.0 150.4 A120 120 0 0 1 504.6 160.7" stroke="#54eb33" stroke-width="40" fill="none" stroke-linecap="round"/><path d="M501.8 157.2 A120 120 0 0 1 509.6 168.2" stroke="#47eb33" stroke-width="40" fill="none" stroke-linecap="round"/><path d="M507.1 164.4 A120 120 0 0 1 514.1 175.9" stroke="#39eb33" stroke-width="40" fill="none" stroke-linecap="round"/><path d="M511.9 172.0 A120 120 0 0 1 518.0 184.0" stroke="#33eb39" stroke-width="40" fill="none" stroke-linecap="round"/><path d="M516.1 179.9 A120 120 0 0 1 521.3 192.4" stroke="#33eb47" stroke-width="40" fill="none" stroke-linecap="round"/><path d="M519.7 188.2 A120 120 0 0 1 523.9 200.9" stroke="#33eb54" stroke-width="40" fill="none" stroke-linecap="round"/><path d="M522.7 196.6 A120 120 0 0 1 525.9 209.7" stroke="#33eb61" stroke-width="40" fill="none" stroke-linecap="round"/><path d="M525.0 205.3 A120 120 0 0 1 527.2 218.6" stroke="#33eb6e" stroke-width="40" fill="none" stroke-linecap="round"/><path d="M526.7 214.1 A120 120 0 0 1 527.9 227.5" stroke="#33eb7b" stroke-width="40" fill="none" stroke-linecap="round"/><path d="M527.7 223.0 A120 120 0 0 1 527.9 236.5" stroke="#33eb88" stroke-width="40" fill="none" stroke-linecap="round"/><path d="M471.7 326.5 L535.2 338.7" stroke="#33baeb" stroke-width="40" fill="none" stroke-linecap="round"/></g>
  </g>

  <g transform="translate(320 250) rotate(-20)"><g class="mouse">
    <path d="M-58 10 C -108 -4 -120 -44 -152 -38" fill="none" stroke="#96a2ac" stroke-width="9" stroke-linecap="round"/>
    <ellipse cx="-26" cy="30" rx="16" ry="9" fill="#8b97a2"/>
    <circle cx="44" cy="-44" r="20" fill="#8b97a2"/>
    <ellipse cx="0" cy="0" rx="60" ry="40" fill="url(#mBody)"/>
    <ellipse cx="8" cy="12" rx="42" ry="24" fill="#eef2f5" opacity=".75"/>
    <ellipse cx="30" cy="31" rx="15" ry="8" fill="#8b97a2"/>
    <circle cx="56" cy="-6" r="35" fill="url(#mBody)"/>
    <circle cx="71" cy="-40" r="23" fill="#aab4bd"/>
    <circle cx="71" cy="-40" r="12" fill="#ffb3c7"/>
    <circle cx="70" cy="-12" r="5.5" fill="#20242a"/>
    <circle cx="72" cy="-14" r="1.7" fill="#fff"/>
    <circle cx="90" cy="0" r="5.5" fill="#ff7aa2"/>
    <g stroke="#c2cbd3" stroke-width="2" stroke-linecap="round">
      <line x1="88" y1="2" x2="120" y2="-6"/><line x1="88" y1="4" x2="122" y2="6"/><line x1="88" y1="6" x2="120" y2="18"/>
    </g></g></g>
</svg>
